<mxfile host="Electron" modified="2024-01-06T12:48:18.432Z" agent="Mozilla/5.0 (Windows NT 10.0; Win64; x64) AppleWebKit/537.36 (KHTML, like Gecko) draw.io/22.1.16 Chrome/120.0.6099.109 Electron/28.1.0 Safari/537.36" version="22.1.16" etag="4YGfFavkeuynY-wvTXg8" type="device">
  <diagram name="Page-1" id="Page-1">
    <mxGraphModel dx="1687" dy="2140" grid="1" gridSize="10" guides="1" tooltips="1" connect="1" arrows="1" fold="1" page="1" pageScale="1" pageWidth="850" pageHeight="1100" math="0" shadow="0">
      <root>
        <mxCell id="0" />
        <mxCell id="1" parent="0" />
        <UserObject label="&lt;div style=&quot;font-size: 1px&quot;&gt;&lt;font style=&quot;font-size:16.93px;font-family:Calibri;color:#ffffff;direction:ltr;letter-spacing:0px;line-height:120%;opacity:1&quot;&gt;Влизане в приложението&lt;br/&gt;&lt;/font&gt;&lt;/div&gt;" tags="Background" id="2">
          <mxCell style="verticalAlign=middle;align=center;overflow=width;vsdxID=1;fillColor=#000000;gradientColor=none;shape=stencil(vVHLDsIgEPwajiQI6RfU+h8bu22JCGRB2/69kG1iazx58DazM/vIjjBtmiCi0CplCjecbZ8nYc5Ca+snJJsLEqYTph0C4Ujh4XvmEaqzont41gkL96naodXKrGF6YSfQtUi0OXXDVlqPfJNP6usotUhYbJIUMmQb/GGrAxpRljVycDBuc1hKM2LclX8/7H9nFfB+82Cd45T2+mcspcSRmu4F);strokeColor=#ffffff;points=[];labelBackgroundColor=none;rounded=0;html=1;whiteSpace=wrap;" parent="1" vertex="1">
            <mxGeometry x="1081" y="979" width="160" height="48" as="geometry" />
          </mxCell>
        </UserObject>
        <UserObject label="&lt;div style=&quot;font-size: 1px&quot;&gt;&lt;p style=&quot;text-align:center;margin-left:0;margin-right:0;margin-top:0px;margin-bottom:0px;text-indent:0;vertical-align:middle;direction:ltr;&quot;&gt;&lt;font style=&quot;font-size:16.93px;font-family:Calibri;color:#000000;direction:ltr;letter-spacing:0px;line-height:120%;opacity:1&quot;&gt;Потребител&lt;/font&gt;&lt;font style=&quot;font-size:16.93px;font-family:Themed;color:#000000;direction:ltr;letter-spacing:0px;line-height:120%;opacity:1&quot;&gt;/&lt;/font&gt;&lt;font style=&quot;font-size:16.93px;font-family:Themed;color:#000000;direction:ltr;letter-spacing:0px;line-height:120%;opacity:1&quot;&gt;Администратор&lt;br/&gt;&lt;/font&gt;&lt;/p&gt;&lt;/div&gt;" tags="Background" id="3">
          <mxCell style="verticalAlign=middle;align=center;overflow=width;vsdxID=2;fillColor=#d80073;gradientColor=none;shape=stencil(tZTbDoIwDEC/Zo+QsQnis5f/WHTA4mSkTMW/d6SiQIQg6lu7nna9pYSvy0wUkjBaWjBHeVUHmxG+IYypPJOgrJMI3xK+TgzIFMw5P6BeiJqspZO51BEq9GO0dmH0hmpAUd8hq1U+zIbT0eUIOpfkI2TQRVk4jK6mo01zpmUwva54Njo2gviDyYbz2ehHYccXsbe0Kz+IenibFrB3JniOwl8wpKHpG6pV03A/XrwLRytPVKr0wFhhlck7a6gFpNJzX3mJFunDD03lVcqi9fxNcoO1/iU5J7wuRaK0xkPTtvcvi3vCq8S3dw==);strokeColor=#ffffff;points=[];labelBackgroundColor=none;rounded=0;html=1;whiteSpace=wrap;" parent="1" vertex="1">
            <mxGeometry x="550" y="979" width="48" height="100" as="geometry" />
          </mxCell>
        </UserObject>
        <UserObject label="&lt;div style=&quot;font-size: 1px&quot;&gt;&lt;font style=&quot;font-size:16.93px;font-family:Calibri;color:#ffffff;direction:ltr;letter-spacing:0px;line-height:120%;opacity:1&quot;&gt;Регистрация в приложението&lt;/font&gt;&lt;font style=&quot;font-size:16.93px;font-family:Themed;color:#ffffff;direction:ltr;letter-spacing:0px;line-height:120%;opacity:1&quot;&gt;&lt;br/&gt;&lt;/font&gt;&lt;/div&gt;" tags="Background" id="4">
          <mxCell style="verticalAlign=middle;align=center;overflow=width;vsdxID=3;fillColor=#000000;gradientColor=none;shape=stencil(vVHLDsIgEPwajiQI6RfU+h8bu22JCGRB2/69kG1iazx58DazM/vIjjBtmiCi0CplCjecbZ8nYc5Ca+snJJsLEqYTph0C4Ujh4XvmEaqzont41gkL96naodXKrGF6YSfQtUi0OXXDVlqPfJNP6usotUhYbJIUMmQb/GGrAxpRljVycDBuc1hKM2LclX8/7H9nFfB+82Cd45T2+mcspcSRmu4F);strokeColor=#ffffff;points=[];labelBackgroundColor=none;rounded=0;html=1;whiteSpace=wrap;" parent="1" vertex="1">
            <mxGeometry x="1090" y="1090" width="160" height="48" as="geometry" />
          </mxCell>
        </UserObject>
        <UserObject label="&lt;div style=&quot;font-size: 1px&quot;&gt;&lt;font style=&quot;font-size:16.93px;font-family:Calibri;color:#ffffff;direction:ltr;letter-spacing:0px;line-height:120%;opacity:1&quot;&gt;Автентикация&lt;br/&gt;&lt;/font&gt;&lt;/div&gt;" tags="Background" id="5">
          <mxCell style="verticalAlign=middle;align=center;overflow=width;vsdxID=6;fillColor=#000000;gradientColor=none;shape=stencil(vVHLDsIgEPwajiQI6RfU+h8bu22JCGRB2/69kG1iazx58DazM/vIjjBtmiCi0CplCjecbZ8nYc5Ca+snJJsLEqYTph0C4Ujh4XvmEaqzont41gkL96naodXKrGF6YSfQtUi0OXXDVlqPfJNP6usotUhYbJIUMmQb/GGrAxpRljVycDBuc1hKM2LclX8/7H9nFfB+82Cd45T2+mcspcSRmu4F);strokeColor=#ffffff;points=[];labelBackgroundColor=none;rounded=0;html=1;whiteSpace=wrap;" parent="1" vertex="1">
            <mxGeometry x="1934" y="1192" width="160" height="48" as="geometry" />
          </mxCell>
        </UserObject>
        <UserObject label="&lt;div style=&quot;font-size: 1px&quot;&gt;&lt;p style=&quot;text-align:center;margin-left:0;margin-right:0;margin-top:0px;margin-bottom:0px;text-indent:0;vertical-align:middle;direction:ltr;&quot;&gt;&lt;font style=&quot;font-size:16.93px;font-family:Calibri;color:#ffffff;direction:ltr;letter-spacing:0px;line-height:120%;opacity:1&quot;&gt;Създаване на компания&lt;/font&gt;&lt;font style=&quot;font-size:16.93px;font-family:Themed;color:#ffffff;direction:ltr;letter-spacing:0px;line-height:120%;opacity:1&quot;&gt;&lt;br&gt;&lt;/font&gt;&lt;/p&gt;&lt;/div&gt;" tags="Background" id="8">
          <mxCell style="verticalAlign=middle;align=center;overflow=width;vsdxID=129;fillColor=#000000;gradientColor=none;shape=stencil(vVHLDsIgEPwajiQI6RfU+h8bu22JCGRB2/69kG1iazx58DazM/vIjjBtmiCi0CplCjecbZ8nYc5Ca+snJJsLEqYTph0C4Ujh4XvmEaqzont41gkL96naodXKrGF6YSfQtUi0OXXDVlqPfJNP6usotUhYbJIUMmQb/GGrAxpRljVycDBuc1hKM2LclX8/7H9nFfB+82Cd45T2+mcspcSRmu4F);strokeColor=#ffffff;points=[];labelBackgroundColor=none;rounded=0;html=1;whiteSpace=wrap;" parent="1" vertex="1">
            <mxGeometry x="1725.5" y="630" width="178" height="48" as="geometry" />
          </mxCell>
        </UserObject>
        <UserObject label="&lt;div style=&quot;font-size: 1px&quot;&gt;&lt;font style=&quot;font-size:16.93px;font-family:Calibri;color:#ffffff;direction:ltr;letter-spacing:0px;line-height:120%;opacity:1&quot;&gt;Създаване на материал&lt;br&gt;&lt;/font&gt;&lt;/div&gt;" tags="Background" id="9">
          <mxCell style="verticalAlign=middle;align=center;overflow=width;vsdxID=135;fillColor=#000000;gradientColor=none;shape=stencil(vVHLDsIgEPwajiQI6RfU+h8bu22JCGRB2/69kG1iazx58DazM/vIjjBtmiCi0CplCjecbZ8nYc5Ca+snJJsLEqYTph0C4Ujh4XvmEaqzont41gkL96naodXKrGF6YSfQtUi0OXXDVlqPfJNP6usotUhYbJIUMmQb/GGrAxpRljVycDBuc1hKM2LclX8/7H9nFfB+82Cd45T2+mcspcSRmu4F);strokeColor=#ffffff;points=[];labelBackgroundColor=none;rounded=0;html=1;whiteSpace=wrap;" parent="1" vertex="1">
            <mxGeometry x="1920" y="630" width="222" height="48" as="geometry" />
          </mxCell>
        </UserObject>
        <UserObject label="&lt;div style=&quot;font-size: 1px&quot;&gt;&lt;font style=&quot;font-size:16.93px;font-family:Calibri;color:#ffffff;direction:ltr;letter-spacing:0px;line-height:120%;opacity:1&quot;&gt;Създаване на вид материал&lt;br&gt;&lt;/font&gt;&lt;/div&gt;" tags="Background" id="10">
          <mxCell style="verticalAlign=middle;align=center;overflow=width;vsdxID=141;fillColor=#000000;gradientColor=none;shape=stencil(vVHLDsIgEPwajiQI6RfU+h8bu22JCGRB2/69kG1iazx58DazM/vIjjBtmiCi0CplCjecbZ8nYc5Ca+snJJsLEqYTph0C4Ujh4XvmEaqzont41gkL96naodXKrGF6YSfQtUi0OXXDVlqPfJNP6usotUhYbJIUMmQb/GGrAxpRljVycDBuc1hKM2LclX8/7H9nFfB+82Cd45T2+mcspcSRmu4F);strokeColor=#ffffff;points=[];labelBackgroundColor=none;rounded=0;html=1;whiteSpace=wrap;" parent="1" vertex="1">
            <mxGeometry x="2146.5" y="630" width="160" height="48" as="geometry" />
          </mxCell>
        </UserObject>
        <UserObject label="&lt;div style=&quot;font-size: 1px&quot;&gt;&lt;font style=&quot;font-size:16.93px;font-family:Calibri;color:#ffffff;direction:ltr;letter-spacing:0px;line-height:120%;opacity:1&quot;&gt;Отказ&lt;br/&gt;&lt;/font&gt;&lt;/div&gt;" tags="Background" id="11">
          <mxCell style="verticalAlign=middle;align=center;overflow=width;vsdxID=148;fillColor=#000000;gradientColor=none;shape=stencil(vVHLDsIgEPwajiQI6RfU+h8bu22JCGRB2/69kG1iazx58DazM/vIjjBtmiCi0CplCjecbZ8nYc5Ca+snJJsLEqYTph0C4Ujh4XvmEaqzont41gkL96naodXKrGF6YSfQtUi0OXXDVlqPfJNP6usotUhYbJIUMmQb/GGrAxpRljVycDBuc1hKM2LclX8/7H9nFfB+82Cd45T2+mcspcSRmu4F);strokeColor=#ffffff;points=[];labelBackgroundColor=none;rounded=0;html=1;whiteSpace=wrap;" parent="1" vertex="1">
            <mxGeometry x="2186" y="-150" width="160" height="48" as="geometry" />
          </mxCell>
        </UserObject>
        <UserObject label="&lt;div style=&quot;font-size: 1px&quot;&gt;&lt;font style=&quot;font-size:16.93px;font-family:Calibri;color:#ffffff;direction:ltr;letter-spacing:0px;line-height:120%;opacity:1&quot;&gt;Повече опции&lt;br/&gt;&lt;/font&gt;&lt;/div&gt;" tags="Background" id="12">
          <mxCell style="verticalAlign=middle;align=center;overflow=width;vsdxID=149;fillColor=#000000;gradientColor=none;shape=stencil(vVHLDsIgEPwajiQI6RfU+h8bu22JCGRB2/69kG1iazx58DazM/vIjjBtmiCi0CplCjecbZ8nYc5Ca+snJJsLEqYTph0C4Ujh4XvmEaqzont41gkL96naodXKrGF6YSfQtUi0OXXDVlqPfJNP6usotUhYbJIUMmQb/GGrAxpRljVycDBuc1hKM2LclX8/7H9nFfB+82Cd45T2+mcspcSRmu4F);strokeColor=#ffffff;points=[];labelBackgroundColor=none;rounded=0;html=1;whiteSpace=wrap;" parent="1" vertex="1">
            <mxGeometry x="1820" y="30" width="160" height="48" as="geometry" />
          </mxCell>
        </UserObject>
        <UserObject label="&lt;div style=&quot;font-size: 1px&quot;&gt;&lt;font style=&quot;font-size:16.93px;font-family:Calibri;color:#ffffff;direction:ltr;letter-spacing:0px;line-height:120%;opacity:1&quot;&gt;Справки&lt;br/&gt;&lt;/font&gt;&lt;/div&gt;" tags="Background" id="13">
          <mxCell style="verticalAlign=middle;align=center;overflow=width;vsdxID=231;fillColor=#000000;gradientColor=none;shape=stencil(vVHLDsIgEPwajiQI6RfU+h8bu22JCGRB2/69kG1iazx58DazM/vIjjBtmiCi0CplCjecbZ8nYc5Ca+snJJsLEqYTph0C4Ujh4XvmEaqzont41gkL96naodXKrGF6YSfQtUi0OXXDVlqPfJNP6usotUhYbJIUMmQb/GGrAxpRljVycDBuc1hKM2LclX8/7H9nFfB+82Cd45T2+mcspcSRmu4F);strokeColor=#ffffff;points=[];labelBackgroundColor=none;rounded=0;html=1;whiteSpace=wrap;" parent="1" vertex="1">
            <mxGeometry x="2370" y="1196" width="160" height="48" as="geometry" />
          </mxCell>
        </UserObject>
        <UserObject label="&lt;div style=&quot;font-size: 1px&quot;&gt;&lt;font style=&quot;font-size:16.93px;font-family:Calibri;color:#ffffff;direction:ltr;letter-spacing:0px;line-height:120%;opacity:1&quot;&gt;Излизане в системата&lt;br/&gt;&lt;/font&gt;&lt;/div&gt;" tags="Background" id="14">
          <mxCell style="verticalAlign=middle;align=center;overflow=width;vsdxID=254;fillColor=#000000;gradientColor=none;shape=stencil(vVHLDsIgEPwajiQI6RfU+h8bu22JCGRB2/69kG1iazx58DazM/vIjjBtmiCi0CplCjecbZ8nYc5Ca+snJJsLEqYTph0C4Ujh4XvmEaqzont41gkL96naodXKrGF6YSfQtUi0OXXDVlqPfJNP6usotUhYbJIUMmQb/GGrAxpRljVycDBuc1hKM2LclX8/7H9nFfB+82Cd45T2+mcspcSRmu4F);strokeColor=#ffffff;points=[];labelBackgroundColor=none;rounded=0;html=1;whiteSpace=wrap;" parent="1" vertex="1">
            <mxGeometry x="2185" y="1412" width="185" height="48" as="geometry" />
          </mxCell>
        </UserObject>
        <UserObject label="&lt;div style=&quot;font-size: 1px&quot;&gt;&lt;font style=&quot;font-size:16.93px;font-family:Calibri;color:#ffffff;direction:ltr;letter-spacing:0px;line-height:120%;opacity:1&quot;&gt;Редакция на &lt;br/&gt;неговите атрибути&lt;br/&gt;&lt;/font&gt;&lt;/div&gt;" tags="Background" id="31">
          <mxCell style="verticalAlign=middle;align=center;overflow=width;vsdxID=429;fillColor=#000000;gradientColor=none;shape=stencil(vVHLDsIgEPwajiQI6RfU+h8bu22JCGRB2/69kG1iazx58DazM/vIjjBtmiCi0CplCjecbZ8nYc5Ca+snJJsLEqYTph0C4Ujh4XvmEaqzont41gkL96naodXKrGF6YSfQtUi0OXXDVlqPfJNP6usotUhYbJIUMmQb/GGrAxpRljVycDBuc1hKM2LclX8/7H9nFfB+82Cd45T2+mcspcSRmu4F);strokeColor=#ffffff;points=[];labelBackgroundColor=none;rounded=0;html=1;whiteSpace=wrap;" parent="1" vertex="1">
            <mxGeometry x="1396" y="2390" width="160" height="51" as="geometry" />
          </mxCell>
        </UserObject>
        <UserObject label="&lt;div style=&quot;font-size: 1px&quot;&gt;&lt;font style=&quot;font-size:16.93px;font-family:Calibri;color:#ffffff;direction:ltr;letter-spacing:0px;line-height:120%;opacity:1&quot;&gt;Изтриване на стая&lt;br/&gt;&lt;/font&gt;&lt;/div&gt;" tags="Background" id="32">
          <mxCell style="verticalAlign=middle;align=center;overflow=width;vsdxID=430;fillColor=#000000;gradientColor=none;shape=stencil(vVHLDsIgEPwajiQI6RfU+h8bu22JCGRB2/69kG1iazx58DazM/vIjjBtmiCi0CplCjecbZ8nYc5Ca+snJJsLEqYTph0C4Ujh4XvmEaqzont41gkL96naodXKrGF6YSfQtUi0OXXDVlqPfJNP6usotUhYbJIUMmQb/GGrAxpRljVycDBuc1hKM2LclX8/7H9nFfB+82Cd45T2+mcspcSRmu4F);strokeColor=#ffffff;points=[];labelBackgroundColor=none;rounded=0;html=1;whiteSpace=wrap;" parent="1" vertex="1">
            <mxGeometry x="1790" y="2393" width="160" height="48" as="geometry" />
          </mxCell>
        </UserObject>
        <UserObject label="&lt;div style=&quot;font-size: 1px&quot;&gt;&lt;font style=&quot;font-size:16.93px;font-family:Calibri;color:#ffffff;direction:ltr;letter-spacing:0px;line-height:120%;opacity:1&quot;&gt;Потвърждение &lt;br/&gt;на промените&lt;br/&gt;&lt;/font&gt;&lt;/div&gt;" tags="Background" id="34">
          <mxCell style="verticalAlign=middle;align=center;overflow=width;vsdxID=447;fillColor=#000000;gradientColor=none;shape=stencil(vVHLDsIgEPwajiQI6RfU+h8bu22JCGRB2/69kG1iazx58DazM/vIjjBtmiCi0CplCjecbZ8nYc5Ca+snJJsLEqYTph0C4Ujh4XvmEaqzont41gkL96naodXKrGF6YSfQtUi0OXXDVlqPfJNP6usotUhYbJIUMmQb/GGrAxpRljVycDBuc1hKM2LclX8/7H9nFfB+82Cd45T2+mcspcSRmu4F);strokeColor=#ffffff;points=[];labelBackgroundColor=none;rounded=0;html=1;whiteSpace=wrap;" parent="1" vertex="1">
            <mxGeometry x="1250" y="2581.5" width="160" height="51" as="geometry" />
          </mxCell>
        </UserObject>
        <UserObject label="&lt;div style=&quot;font-size: 1px&quot;&gt;&lt;font style=&quot;font-size:16.93px;font-family:Calibri;color:#ffffff;direction:ltr;letter-spacing:0px;line-height:120%;opacity:1&quot;&gt;Отказ&lt;br/&gt;&lt;/font&gt;&lt;/div&gt;" tags="Background" id="35">
          <mxCell style="verticalAlign=middle;align=center;overflow=width;vsdxID=448;fillColor=#000000;gradientColor=none;shape=stencil(vVHLDsIgEPwajiQI6RfU+h8bu22JCGRB2/69kG1iazx58DazM/vIjjBtmiCi0CplCjecbZ8nYc5Ca+snJJsLEqYTph0C4Ujh4XvmEaqzont41gkL96naodXKrGF6YSfQtUi0OXXDVlqPfJNP6usotUhYbJIUMmQb/GGrAxpRljVycDBuc1hKM2LclX8/7H9nFfB+82Cd45T2+mcspcSRmu4F);strokeColor=#ffffff;points=[];labelBackgroundColor=none;rounded=0;html=1;whiteSpace=wrap;" parent="1" vertex="1">
            <mxGeometry x="1470" y="2583" width="160" height="48" as="geometry" />
          </mxCell>
        </UserObject>
        <UserObject label="&lt;div style=&quot;font-size: 1px&quot;&gt;&lt;font style=&quot;font-size:16.93px;font-family:Calibri;color:#ffffff;direction:ltr;letter-spacing:0px;line-height:120%;opacity:1&quot;&gt;Потвърждение &lt;br/&gt;на промените&lt;br/&gt;&lt;/font&gt;&lt;/div&gt;" tags="Background" id="36">
          <mxCell style="verticalAlign=middle;align=center;overflow=width;vsdxID=459;fillColor=#000000;gradientColor=none;shape=stencil(vVHLDsIgEPwajiQI6RfU+h8bu22JCGRB2/69kG1iazx58DazM/vIjjBtmiCi0CplCjecbZ8nYc5Ca+snJJsLEqYTph0C4Ujh4XvmEaqzont41gkL96naodXKrGF6YSfQtUi0OXXDVlqPfJNP6usotUhYbJIUMmQb/GGrAxpRljVycDBuc1hKM2LclX8/7H9nFfB+82Cd45T2+mcspcSRmu4F);strokeColor=#ffffff;points=[];labelBackgroundColor=none;rounded=0;html=1;whiteSpace=wrap;" parent="1" vertex="1">
            <mxGeometry x="1790" y="2583" width="160" height="51" as="geometry" />
          </mxCell>
        </UserObject>
        <UserObject label="&lt;div style=&quot;font-size: 1px&quot;&gt;&lt;font style=&quot;font-size:16.93px;font-family:Calibri;color:#ffffff;direction:ltr;letter-spacing:0px;line-height:120%;opacity:1&quot;&gt;Отказ&lt;br/&gt;&lt;/font&gt;&lt;/div&gt;" tags="Background" id="37">
          <mxCell style="verticalAlign=middle;align=center;overflow=width;vsdxID=460;fillColor=#000000;gradientColor=none;shape=stencil(vVHLDsIgEPwajiQI6RfU+h8bu22JCGRB2/69kG1iazx58DazM/vIjjBtmiCi0CplCjecbZ8nYc5Ca+snJJsLEqYTph0C4Ujh4XvmEaqzont41gkL96naodXKrGF6YSfQtUi0OXXDVlqPfJNP6usotUhYbJIUMmQb/GGrAxpRljVycDBuc1hKM2LclX8/7H9nFfB+82Cd45T2+mcspcSRmu4F);strokeColor=#ffffff;points=[];labelBackgroundColor=none;rounded=0;html=1;whiteSpace=wrap;" parent="1" vertex="1">
            <mxGeometry x="1970" y="2583" width="160" height="48" as="geometry" />
          </mxCell>
        </UserObject>
        <UserObject label="&lt;div style=&quot;font-size: 1px&quot;&gt;&lt;font style=&quot;font-size:16.93px;font-family:Calibri;color:#ffffff;direction:ltr;letter-spacing:0px;line-height:120%;opacity:1&quot;&gt;Промяна на:&lt;br&gt;&lt;/font&gt;&lt;/div&gt;" tags="Background" id="38">
          <mxCell style="verticalAlign=middle;align=center;overflow=width;vsdxID=471;fillColor=#000000;gradientColor=none;shape=stencil(vVHLDsIgEPwajiQI6RfU+h8bu22JCGRB2/69kG1iazx58DazM/vIjjBtmiCi0CplCjecbZ8nYc5Ca+snJJsLEqYTph0C4Ujh4XvmEaqzont41gkL96naodXKrGF6YSfQtUi0OXXDVlqPfJNP6usotUhYbJIUMmQb/GGrAxpRljVycDBuc1hKM2LclX8/7H9nFfB+82Cd45T2+mcspcSRmu4F);strokeColor=#ffffff;points=[];labelBackgroundColor=none;rounded=0;html=1;whiteSpace=wrap;" parent="1" vertex="1">
            <mxGeometry x="1829" y="1429.5" width="160" height="48" as="geometry" />
          </mxCell>
        </UserObject>
        <UserObject label="&lt;div style=&quot;font-size: 1px&quot;&gt;&lt;font style=&quot;font-size:16.93px;font-family:Calibri;color:#ffffff;direction:ltr;letter-spacing:0px;line-height:120%;opacity:1&quot;&gt;Потвъждаване на създаване&lt;br/&gt;&lt;/font&gt;&lt;/div&gt;" tags="Background" id="39">
          <mxCell style="verticalAlign=middle;align=center;overflow=width;vsdxID=477;fillColor=#000000;gradientColor=none;shape=stencil(vVHLDsIgEPwajiQI6RfU+h8bu22JCGRB2/69kG1iazx58DazM/vIjjBtmiCi0CplCjecbZ8nYc5Ca+snJJsLEqYTph0C4Ujh4XvmEaqzont41gkL96naodXKrGF6YSfQtUi0OXXDVlqPfJNP6usotUhYbJIUMmQb/GGrAxpRljVycDBuc1hKM2LclX8/7H9nFfB+82Cd45T2+mcspcSRmu4F);strokeColor=#ffffff;points=[];labelBackgroundColor=none;rounded=0;html=1;whiteSpace=wrap;" parent="1" vertex="1">
            <mxGeometry x="1516" y="-160" width="237" height="48" as="geometry" />
          </mxCell>
        </UserObject>
        <UserObject label="&lt;div style=&quot;font-size: 1px&quot;&gt;&lt;p style=&quot;text-align:center;margin-left:0;margin-right:0;margin-top:0px;margin-bottom:0px;text-indent:0;vertical-align:middle;direction:ltr;&quot;&gt;&lt;font style=&quot;font-size:16.93px;font-family:Calibri;color:#ffffff;direction:ltr;letter-spacing:0px;line-height:120%;opacity:1&quot;&gt;Най-продавани материали&lt;br&gt;&lt;/font&gt;&lt;/p&gt;&lt;/div&gt;" tags="Background" id="40">
          <mxCell style="verticalAlign=middle;align=center;overflow=width;vsdxID=493;fillColor=#000000;gradientColor=none;shape=stencil(vVHLDsIgEPwajiQI6RfU+h8bu22JCGRB2/69kG1iazx58DazM/vIjjBtmiCi0CplCjecbZ8nYc5Ca+snJJsLEqYTph0C4Ujh4XvmEaqzont41gkL96naodXKrGF6YSfQtUi0OXXDVlqPfJNP6usotUhYbJIUMmQb/GGrAxpRljVycDBuc1hKM2LclX8/7H9nFfB+82Cd45T2+mcspcSRmu4F);strokeColor=#ffffff;points=[];labelBackgroundColor=none;rounded=0;html=1;whiteSpace=wrap;" parent="1" vertex="1">
            <mxGeometry x="2810" y="850" width="277" height="68" as="geometry" />
          </mxCell>
        </UserObject>
        <UserObject label="&lt;div style=&quot;font-size: 1px&quot;&gt;&lt;p style=&quot;text-align:center;margin-left:0;margin-right:0;margin-top:0px;margin-bottom:0px;text-indent:0;vertical-align:middle;direction:ltr;&quot;&gt;&lt;font style=&quot;font-size:16.93px;font-family:Calibri;color:#ffffff;direction:ltr;letter-spacing:0px;line-height:120%;opacity:1&quot;&gt;Налични материали&lt;br&gt;&lt;/font&gt;&lt;/p&gt;&lt;/div&gt;" tags="Background" id="41">
          <mxCell style="verticalAlign=middle;align=center;overflow=width;vsdxID=494;fillColor=#000000;gradientColor=none;shape=stencil(vVHLDsIgEPwajiQI6RfU+h8bu22JCGRB2/69kG1iazx58DazM/vIjjBtmiCi0CplCjecbZ8nYc5Ca+snJJsLEqYTph0C4Ujh4XvmEaqzont41gkL96naodXKrGF6YSfQtUi0OXXDVlqPfJNP6usotUhYbJIUMmQb/GGrAxpRljVycDBuc1hKM2LclX8/7H9nFfB+82Cd45T2+mcspcSRmu4F);strokeColor=#ffffff;points=[];labelBackgroundColor=none;rounded=0;html=1;whiteSpace=wrap;" parent="1" vertex="1">
            <mxGeometry x="2790" y="1027" width="341" height="84" as="geometry" />
          </mxCell>
        </UserObject>
        <mxCell id="55" parent="1" vertex="1">
          <mxGeometry x="3001" y="1496" as="geometry" />
        </mxCell>
        <mxCell id="57" parent="1" vertex="1">
          <mxGeometry x="3001" y="1496" as="geometry" />
        </mxCell>
        <UserObject label="&lt;div style=&quot;font-size: 1px&quot;&gt;&lt;p style=&quot;text-align:center;margin-left:0;margin-right:0;margin-top:0px;margin-bottom:0px;text-indent:0;vertical-align:middle;direction:ltr;&quot;&gt;&lt;font style=&quot;font-size:11.29px;font-family:Calibri;color:#0d5273;direction:ltr;letter-spacing:0px;line-height:120%;opacity:1&quot;&gt;&amp;lt;&amp;lt;include&amp;gt;&amp;gt;&lt;br/&gt;&lt;/font&gt;&lt;/p&gt;&lt;/div&gt;" tags="Connector" id="59">
          <mxCell style="vsdxID=12;edgeStyle=none;dashed=1;startArrow=none;endArrow=open;startSize=5;endSize=5;strokeColor=#178dc6;spacingTop=0;spacingBottom=0;spacingLeft=0;spacingRight=0;verticalAlign=middle;html=1;labelBackgroundColor=#ffffff;rounded=0;align=center;exitX=0.91875;exitY=0.7916666666666666;exitDx=0;exitDy=0;exitPerimeter=0;entryX=0.0875;entryY=0.22916666666666666;entryDx=0;entryDy=0;entryPerimeter=0;" parent="1" source="4" target="5" edge="1">
            <mxGeometry relative="1" as="geometry">
              <mxPoint y="50" as="offset" />
              <Array as="points" />
            </mxGeometry>
          </mxCell>
        </UserObject>
        <UserObject label="&lt;div style=&quot;font-size: 1px&quot;&gt;&lt;p style=&quot;text-align:center;margin-left:0;margin-right:0;margin-top:0px;margin-bottom:0px;text-indent:0;vertical-align:middle;direction:ltr;&quot;&gt;&lt;font style=&quot;font-size:11.29px;font-family:Calibri;color:#0d5273;direction:ltr;letter-spacing:0px;line-height:120%;opacity:1&quot;&gt;&amp;lt;&amp;lt;include&amp;gt;&amp;gt;&lt;br/&gt;&lt;/font&gt;&lt;/p&gt;&lt;/div&gt;" tags="Connector" id="60">
          <mxCell style="vsdxID=7;edgeStyle=none;dashed=1;startArrow=none;endArrow=open;startSize=5;endSize=5;strokeColor=#178dc6;spacingTop=0;spacingBottom=0;spacingLeft=0;spacingRight=0;verticalAlign=middle;html=1;labelBackgroundColor=#ffffff;rounded=0;align=center;exitX=0.79375;exitY=0.8958333333333334;exitDx=0;exitDy=0;exitPerimeter=0;entryX=0.2125;entryY=0.10416666666666667;entryDx=0;entryDy=0;entryPerimeter=0;" parent="1" source="2" target="5" edge="1">
            <mxGeometry relative="1" as="geometry">
              <mxPoint x="-1" y="105" as="offset" />
              <Array as="points" />
            </mxGeometry>
          </mxCell>
        </UserObject>
        <UserObject label="" tags="Connector" id="61">
          <mxCell style="vsdxID=5;edgeStyle=none;startArrow=none;endArrow=none;startSize=5;endSize=5;strokeColor=#178dc6;spacingTop=0;spacingBottom=0;spacingLeft=0;spacingRight=0;verticalAlign=middle;html=1;labelBackgroundColor=#ffffff;rounded=0;exitX=1;exitY=0.53;exitDx=0;exitDy=0;exitPerimeter=0;entryX=0.0375;entryY=0.3125;entryDx=0;entryDy=0;entryPerimeter=0;" parent="1" source="3" target="4" edge="1">
            <mxGeometry relative="1" as="geometry">
              <mxPoint x="-1" y="-1" as="offset" />
              <Array as="points" />
            </mxGeometry>
          </mxCell>
        </UserObject>
        <UserObject label="" tags="Connector" id="62">
          <mxCell style="vsdxID=4;edgeStyle=none;startArrow=none;endArrow=none;startSize=5;endSize=5;strokeColor=#178dc6;spacingTop=0;spacingBottom=0;spacingLeft=0;spacingRight=0;verticalAlign=middle;html=1;labelBackgroundColor=#ffffff;rounded=0;exitX=1;exitY=0.48;exitDx=0;exitDy=0;exitPerimeter=0;entryX=0.01875;entryY=0.625;entryDx=0;entryDy=0;entryPerimeter=0;" parent="1" source="3" target="2" edge="1">
            <mxGeometry relative="1" as="geometry">
              <mxPoint y="-1" as="offset" />
              <Array as="points" />
            </mxGeometry>
          </mxCell>
        </UserObject>
        <mxCell id="63" parent="1" vertex="1">
          <mxGeometry x="3021" y="1446" as="geometry" />
        </mxCell>
        <mxCell id="65" parent="1" vertex="1">
          <mxGeometry x="2001" y="1186" as="geometry" />
        </mxCell>
        <UserObject label="&lt;div style=&quot;font-size: 1px&quot;&gt;&lt;p style=&quot;text-align:center;margin-left:0;margin-right:0;margin-top:0px;margin-bottom:0px;text-indent:0;vertical-align:middle;direction:ltr;&quot;&gt;&lt;font style=&quot;font-size:11.29px;font-family:Calibri;color:#0d5273;direction:ltr;letter-spacing:0px;line-height:120%;opacity:1&quot;&gt;&amp;lt;&amp;lt;extend&amp;gt;&amp;gt;&lt;br/&gt;&lt;/font&gt;&lt;/p&gt;&lt;/div&gt;" tags="Connector" id="66">
          <mxCell style="vsdxID=136;edgeStyle=none;dashed=1;startArrow=none;endArrow=open;startSize=5;endSize=5;strokeColor=#178dc6;spacingTop=0;spacingBottom=0;spacingLeft=0;spacingRight=0;verticalAlign=middle;html=1;labelBackgroundColor=#ffffff;rounded=0;align=center;entryX=0.4954954954954955;entryY=1;entryDx=0;entryDy=0;entryPerimeter=0;" parent="1" source="65" target="9" edge="1">
            <mxGeometry relative="1" as="geometry">
              <mxPoint y="-1" as="offset" />
              <Array as="points" />
            </mxGeometry>
          </mxCell>
        </UserObject>
        <UserObject label="&lt;div style=&quot;font-size: 1px&quot;&gt;&lt;p style=&quot;text-align:center;margin-left:0;margin-right:0;margin-top:0px;margin-bottom:0px;text-indent:0;vertical-align:middle;direction:ltr;&quot;&gt;&lt;font style=&quot;font-size:11.29px;font-family:Calibri;color:#0d5273;direction:ltr;letter-spacing:0px;line-height:120%;opacity:1&quot;&gt;&amp;lt;&amp;lt;include&amp;gt;&amp;gt;&lt;br/&gt;&lt;/font&gt;&lt;/p&gt;&lt;/div&gt;" tags="Connector" id="68">
          <mxCell style="vsdxID=515;edgeStyle=none;dashed=1;startArrow=none;endArrow=open;startSize=5;endSize=5;strokeColor=#178dc6;spacingTop=0;spacingBottom=0;spacingLeft=0;spacingRight=0;verticalAlign=middle;html=1;labelBackgroundColor=#ffffff;rounded=0;align=center;exitX=0.8768328445747801;exitY=0.8333333333333334;exitDx=0;exitDy=0;exitPerimeter=0;entryX=0.10179640718562874;entryY=0.1875;entryDx=0;entryDy=0;entryPerimeter=0;" parent="1" target="44" edge="1">
            <mxGeometry relative="1" as="geometry">
              <mxPoint y="38" as="offset" />
              <Array as="points" />
              <mxPoint x="2996" y="1495" as="sourcePoint" />
            </mxGeometry>
          </mxCell>
        </UserObject>
        <UserObject label="&lt;div style=&quot;font-size: 1px&quot;&gt;&lt;p style=&quot;text-align:center;margin-left:0;margin-right:0;margin-top:0px;margin-bottom:0px;text-indent:0;vertical-align:middle;direction:ltr;&quot;&gt;&lt;font style=&quot;font-size:11.29px;font-family:Calibri;color:#0d5273;direction:ltr;letter-spacing:0px;line-height:120%;opacity:1&quot;&gt;&amp;lt;&amp;lt;include&amp;gt;&amp;gt;&lt;br/&gt;&lt;/font&gt;&lt;/p&gt;&lt;/div&gt;" tags="Connector" id="69">
          <mxCell style="vsdxID=510;edgeStyle=none;dashed=1;startArrow=none;endArrow=open;startSize=5;endSize=5;strokeColor=#178dc6;spacingTop=0;spacingBottom=0;spacingLeft=0;spacingRight=0;verticalAlign=middle;html=1;labelBackgroundColor=#ffffff;rounded=0;align=center;exitX=0.9384164222873901;exitY=0.2619047619047619;exitDx=0;exitDy=0;exitPerimeter=0;entryX=0.04375;entryY=0.7083333333333334;entryDx=0;entryDy=0;entryPerimeter=0;" parent="1" target="43" edge="1">
            <mxGeometry relative="1" as="geometry">
              <mxPoint y="-1" as="offset" />
              <Array as="points" />
              <mxPoint x="3017" y="1447" as="sourcePoint" />
            </mxGeometry>
          </mxCell>
        </UserObject>
        <UserObject label="&lt;div style=&quot;font-size: 1px&quot;&gt;&lt;p style=&quot;text-align:center;margin-left:0;margin-right:0;margin-top:0px;margin-bottom:0px;text-indent:0;vertical-align:middle;direction:ltr;&quot;&gt;&lt;font style=&quot;font-size:11.29px;font-family:Calibri;color:#0d5273;direction:ltr;letter-spacing:0px;line-height:120%;opacity:1&quot;&gt;&amp;lt;&amp;lt;extend&amp;gt;&amp;gt;&lt;br/&gt;&lt;/font&gt;&lt;/p&gt;&lt;/div&gt;" tags="Connector" id="70">
          <mxCell style="vsdxID=500;edgeStyle=none;dashed=1;startArrow=none;endArrow=open;startSize=5;endSize=5;strokeColor=#178dc6;spacingTop=0;spacingBottom=0;spacingLeft=0;spacingRight=0;verticalAlign=middle;html=1;labelBackgroundColor=#ffffff;rounded=0;align=center;exitX=1;exitY=0.5;exitDx=0;exitDy=0;exitPerimeter=0;entryX=0;entryY=0.5;entryDx=0;entryDy=0;entryPerimeter=0;" parent="1" source="13" target="41" edge="1">
            <mxGeometry relative="1" as="geometry">
              <mxPoint x="-1" as="offset" />
              <Array as="points" />
            </mxGeometry>
          </mxCell>
        </UserObject>
        <UserObject label="&lt;div style=&quot;font-size: 1px&quot;&gt;&lt;p style=&quot;text-align:center;margin-left:0;margin-right:0;margin-top:0px;margin-bottom:0px;text-indent:0;vertical-align:middle;direction:ltr;&quot;&gt;&lt;font style=&quot;font-size:11.29px;font-family:Calibri;color:#0d5273;direction:ltr;letter-spacing:0px;line-height:120%;opacity:1&quot;&gt;&amp;lt;&amp;lt;extend&amp;gt;&amp;gt;&lt;br/&gt;&lt;/font&gt;&lt;/p&gt;&lt;/div&gt;" tags="Connector" id="71">
          <mxCell style="vsdxID=495;edgeStyle=none;dashed=1;startArrow=none;endArrow=open;startSize=5;endSize=5;strokeColor=#178dc6;spacingTop=0;spacingBottom=0;spacingLeft=0;spacingRight=0;verticalAlign=middle;html=1;labelBackgroundColor=#ffffff;rounded=0;align=center;entryX=0.26353790613718414;entryY=0.9411764705882353;entryDx=0;entryDy=0;entryPerimeter=0;" parent="1" target="40" edge="1">
            <mxGeometry relative="1" as="geometry">
              <mxPoint y="-1" as="offset" />
              <Array as="points" />
              <mxPoint x="2530" y="1220" as="sourcePoint" />
            </mxGeometry>
          </mxCell>
        </UserObject>
        <UserObject label="&lt;div style=&quot;font-size: 1px&quot;&gt;&lt;p style=&quot;text-align:center;margin-left:0;margin-right:0;margin-top:0px;margin-bottom:0px;text-indent:0;vertical-align:middle;direction:ltr;&quot;&gt;&lt;font style=&quot;font-size:11.29px;font-family:Calibri;color:#0d5273;direction:ltr;letter-spacing:0px;line-height:120%;opacity:1&quot;&gt;&amp;lt;&amp;lt;extend&amp;gt;&amp;gt;&lt;br/&gt;&lt;/font&gt;&lt;/p&gt;&lt;/div&gt;" tags="Connector" id="72">
          <mxCell style="vsdxID=483;edgeStyle=none;dashed=1;startArrow=none;endArrow=open;startSize=5;endSize=5;strokeColor=#178dc6;spacingTop=0;spacingBottom=0;spacingLeft=0;spacingRight=0;verticalAlign=middle;html=1;labelBackgroundColor=#ffffff;rounded=0;align=center;exitX=0.70625;exitY=0.041666666666666664;exitDx=0;exitDy=0;exitPerimeter=0;entryX=0.29375;entryY=0.9583333333333334;entryDx=0;entryDy=0;entryPerimeter=0;" parent="1" source="12" target="11" edge="1">
            <mxGeometry relative="1" as="geometry">
              <mxPoint x="-1" as="offset" />
              <Array as="points" />
            </mxGeometry>
          </mxCell>
        </UserObject>
        <UserObject label="&lt;div style=&quot;font-size: 1px&quot;&gt;&lt;p style=&quot;text-align:center;margin-left:0;margin-right:0;margin-top:0px;margin-bottom:0px;text-indent:0;vertical-align:middle;direction:ltr;&quot;&gt;&lt;font style=&quot;font-size:11.29px;font-family:Calibri;color:#0d5273;direction:ltr;letter-spacing:0px;line-height:120%;opacity:1&quot;&gt;&amp;lt;&amp;lt;extend&amp;gt;&amp;gt;&lt;br/&gt;&lt;/font&gt;&lt;/p&gt;&lt;/div&gt;" tags="Connector" id="73">
          <mxCell style="vsdxID=478;edgeStyle=none;dashed=1;startArrow=none;endArrow=open;startSize=5;endSize=5;strokeColor=#178dc6;spacingTop=0;spacingBottom=0;spacingLeft=0;spacingRight=0;verticalAlign=middle;html=1;labelBackgroundColor=#ffffff;rounded=0;align=center;exitX=0.3;exitY=0.041666666666666664;exitDx=0;exitDy=0;exitPerimeter=0;entryX=0.6455696202531646;entryY=0.9791666666666666;entryDx=0;entryDy=0;entryPerimeter=0;" parent="1" source="12" target="39" edge="1">
            <mxGeometry relative="1" as="geometry">
              <mxPoint as="offset" />
              <Array as="points" />
            </mxGeometry>
          </mxCell>
        </UserObject>
        <UserObject label="&lt;div style=&quot;font-size: 1px&quot;&gt;&lt;p style=&quot;text-align:center;margin-left:0;margin-right:0;margin-top:0px;margin-bottom:0px;text-indent:0;vertical-align:middle;direction:ltr;&quot;&gt;&lt;font style=&quot;font-size:11.29px;font-family:Calibri;color:#0d5273;direction:ltr;letter-spacing:0px;line-height:120%;opacity:1&quot;&gt;&amp;lt;&amp;lt;extend&amp;gt;&amp;gt;&lt;br/&gt;&lt;/font&gt;&lt;/p&gt;&lt;/div&gt;" tags="Connector" id="74">
          <mxCell style="vsdxID=472;edgeStyle=none;dashed=1;startArrow=none;endArrow=open;startSize=5;endSize=5;strokeColor=#178dc6;spacingTop=0;spacingBottom=0;spacingLeft=0;spacingRight=0;verticalAlign=middle;html=1;labelBackgroundColor=#ffffff;rounded=0;align=center;exitX=0.5375;exitY=0;exitDx=0;exitDy=0;exitPerimeter=0;entryX=0.4625;entryY=1;entryDx=0;entryDy=0;entryPerimeter=0;" parent="1" source="38" target="5" edge="1">
            <mxGeometry relative="1" as="geometry">
              <mxPoint y="-1" as="offset" />
              <Array as="points" />
            </mxGeometry>
          </mxCell>
        </UserObject>
        <UserObject label="&lt;div style=&quot;font-size: 1px&quot;&gt;&lt;p style=&quot;text-align:center;margin-left:0;margin-right:0;margin-top:0px;margin-bottom:0px;text-indent:0;vertical-align:middle;direction:ltr;&quot;&gt;&lt;font style=&quot;font-size:11.29px;font-family:Calibri;color:#0d5273;direction:ltr;letter-spacing:0px;line-height:120%;opacity:1&quot;&gt;&amp;lt;&amp;lt;extend&amp;gt;&amp;gt;&lt;br/&gt;&lt;/font&gt;&lt;/p&gt;&lt;/div&gt;" tags="Connector" id="75">
          <mxCell style="vsdxID=466;edgeStyle=none;dashed=1;startArrow=none;endArrow=open;startSize=5;endSize=5;strokeColor=#178dc6;spacingTop=0;spacingBottom=0;spacingLeft=0;spacingRight=0;verticalAlign=middle;html=1;labelBackgroundColor=#ffffff;rounded=0;align=center;exitX=0.6125;exitY=1;exitDx=0;exitDy=0;exitPerimeter=0;entryX=0.3875;entryY=0;entryDx=0;entryDy=0;entryPerimeter=0;" parent="1" source="32" target="37" edge="1">
            <mxGeometry relative="1" as="geometry">
              <mxPoint y="139" as="offset" />
              <Array as="points" />
            </mxGeometry>
          </mxCell>
        </UserObject>
        <UserObject label="&lt;div style=&quot;font-size: 1px&quot;&gt;&lt;p style=&quot;text-align:center;margin-left:0;margin-right:0;margin-top:0px;margin-bottom:0px;text-indent:0;vertical-align:middle;direction:ltr;&quot;&gt;&lt;font style=&quot;font-size:11.29px;font-family:Calibri;color:#0d5273;direction:ltr;letter-spacing:0px;line-height:120%;opacity:1&quot;&gt;&amp;lt;&amp;lt;extend&amp;gt;&amp;gt;&lt;br/&gt;&lt;/font&gt;&lt;/p&gt;&lt;/div&gt;" tags="Connector" id="76">
          <mxCell style="vsdxID=461;edgeStyle=none;dashed=1;startArrow=none;endArrow=open;startSize=5;endSize=5;strokeColor=#178dc6;spacingTop=0;spacingBottom=0;spacingLeft=0;spacingRight=0;verticalAlign=middle;html=1;labelBackgroundColor=#ffffff;rounded=0;align=center;exitX=0.525;exitY=1;exitDx=0;exitDy=0;exitPerimeter=0;entryX=0.475;entryY=0;entryDx=0;entryDy=0;entryPerimeter=0;" parent="1" source="32" target="36" edge="1">
            <mxGeometry relative="1" as="geometry">
              <mxPoint y="138" as="offset" />
              <Array as="points" />
            </mxGeometry>
          </mxCell>
        </UserObject>
        <UserObject label="&lt;div style=&quot;font-size: 1px&quot;&gt;&lt;p style=&quot;text-align:center;margin-left:0;margin-right:0;margin-top:0px;margin-bottom:0px;text-indent:0;vertical-align:middle;direction:ltr;&quot;&gt;&lt;font style=&quot;font-size:11.29px;font-family:Calibri;color:#0d5273;direction:ltr;letter-spacing:0px;line-height:120%;opacity:1&quot;&gt;&amp;lt;&amp;lt;extend&amp;gt;&amp;gt;&lt;br/&gt;&lt;/font&gt;&lt;/p&gt;&lt;/div&gt;" tags="Connector" id="77">
          <mxCell style="vsdxID=454;edgeStyle=none;dashed=1;startArrow=none;endArrow=open;startSize=5;endSize=5;strokeColor=#178dc6;spacingTop=0;spacingBottom=0;spacingLeft=0;spacingRight=0;verticalAlign=middle;html=1;labelBackgroundColor=#ffffff;rounded=0;align=center;exitX=0.55625;exitY=1.0196078431372548;exitDx=0;exitDy=0;exitPerimeter=0;entryX=0.45;entryY=0;entryDx=0;entryDy=0;entryPerimeter=0;" parent="1" source="31" target="35" edge="1">
            <mxGeometry relative="1" as="geometry">
              <mxPoint y="139" as="offset" />
              <Array as="points" />
            </mxGeometry>
          </mxCell>
        </UserObject>
        <UserObject label="&lt;div style=&quot;font-size: 1px&quot;&gt;&lt;p style=&quot;text-align:center;margin-left:0;margin-right:0;margin-top:0px;margin-bottom:0px;text-indent:0;vertical-align:middle;direction:ltr;&quot;&gt;&lt;font style=&quot;font-size:11.29px;font-family:Calibri;color:#0d5273;direction:ltr;letter-spacing:0px;line-height:120%;opacity:1&quot;&gt;&amp;lt;&amp;lt;extend&amp;gt;&amp;gt;&lt;br/&gt;&lt;/font&gt;&lt;/p&gt;&lt;/div&gt;" tags="Connector" id="79">
          <mxCell style="vsdxID=442;edgeStyle=none;dashed=1;startArrow=none;endArrow=open;startSize=5;endSize=5;strokeColor=#178dc6;spacingTop=0;spacingBottom=0;spacingLeft=0;spacingRight=0;verticalAlign=middle;html=1;labelBackgroundColor=#ffffff;rounded=0;align=center;" parent="1" target="jTA-YyCPrmTPrOojGD1L-132" edge="1">
            <mxGeometry relative="1" as="geometry">
              <mxPoint x="10" y="43" as="offset" />
              <Array as="points" />
              <mxPoint x="1910" y="1480" as="sourcePoint" />
              <mxPoint x="1370" y="1561.4999999999995" as="targetPoint" />
            </mxGeometry>
          </mxCell>
        </UserObject>
        <UserObject label="&lt;div style=&quot;font-size: 1px&quot;&gt;&lt;p style=&quot;text-align:center;margin-left:0;margin-right:0;margin-top:0px;margin-bottom:0px;text-indent:0;vertical-align:middle;direction:ltr;&quot;&gt;&lt;font style=&quot;font-size:11.29px;font-family:Calibri;color:#0d5273;direction:ltr;letter-spacing:0px;line-height:120%;opacity:1&quot;&gt;&amp;lt;&amp;lt;extend&amp;gt;&amp;gt;&lt;br/&gt;&lt;/font&gt;&lt;/p&gt;&lt;/div&gt;" tags="Connector" id="80">
          <mxCell style="vsdxID=20;edgeStyle=none;dashed=1;startArrow=none;endArrow=open;startSize=5;endSize=5;strokeColor=#178dc6;spacingTop=0;spacingBottom=0;spacingLeft=0;spacingRight=0;verticalAlign=middle;html=1;labelBackgroundColor=#ffffff;rounded=0;align=center;exitX=1;exitY=0.5;exitDx=0;exitDy=0;exitPerimeter=0;entryX=0;entryY=0.5;entryDx=0;entryDy=0;entryPerimeter=0;" parent="1" source="5" target="13" edge="1">
            <mxGeometry relative="1" as="geometry">
              <mxPoint as="offset" />
              <Array as="points" />
            </mxGeometry>
          </mxCell>
        </UserObject>
        <UserObject label="&lt;div style=&quot;font-size: 1px&quot;&gt;&lt;p style=&quot;text-align:center;margin-left:0;margin-right:0;margin-top:0px;margin-bottom:0px;text-indent:0;vertical-align:middle;direction:ltr;&quot;&gt;&lt;font style=&quot;font-size:11.29px;font-family:Calibri;color:#0d5273;direction:ltr;letter-spacing:0px;line-height:120%;opacity:1&quot;&gt;&amp;lt;&amp;lt;extend&amp;gt;&amp;gt;&lt;br/&gt;&lt;/font&gt;&lt;/p&gt;&lt;/div&gt;" tags="Connector" id="81">
          <mxCell style="vsdxID=130;edgeStyle=none;dashed=1;startArrow=none;endArrow=open;startSize=5;endSize=5;strokeColor=#178dc6;spacingTop=0;spacingBottom=0;spacingLeft=0;spacingRight=0;verticalAlign=middle;html=1;labelBackgroundColor=#ffffff;rounded=0;align=center;exitX=0.4375;exitY=0;exitDx=0;exitDy=0;exitPerimeter=0;entryX=0.5617977528089888;entryY=1;entryDx=0;entryDy=0;entryPerimeter=0;" parent="1" source="5" target="8" edge="1">
            <mxGeometry relative="1" as="geometry">
              <mxPoint x="-1" y="-1" as="offset" />
              <Array as="points" />
            </mxGeometry>
          </mxCell>
        </UserObject>
        <UserObject label="&lt;div style=&quot;font-size: 1px&quot;&gt;&lt;p style=&quot;text-align:center;margin-left:0;margin-right:0;margin-top:0px;margin-bottom:0px;text-indent:0;vertical-align:middle;direction:ltr;&quot;&gt;&lt;font style=&quot;font-size:11.29px;font-family:Calibri;color:#0d5273;direction:ltr;letter-spacing:0px;line-height:120%;opacity:1&quot;&gt;&amp;lt;&amp;lt;extend&amp;gt;&amp;gt;&lt;br/&gt;&lt;/font&gt;&lt;/p&gt;&lt;/div&gt;" tags="Connector" id="82">
          <mxCell style="vsdxID=142;edgeStyle=none;dashed=1;startArrow=none;endArrow=open;startSize=5;endSize=5;strokeColor=#178dc6;spacingTop=0;spacingBottom=0;spacingLeft=0;spacingRight=0;verticalAlign=middle;html=1;labelBackgroundColor=#ffffff;rounded=0;align=center;exitX=0.442;exitY=0.039;exitDx=0;exitDy=0;exitPerimeter=0;entryX=0.425;entryY=1;entryDx=0;entryDy=0;entryPerimeter=0;" parent="1" source="5" target="10" edge="1">
            <mxGeometry relative="1" as="geometry">
              <mxPoint y="-1" as="offset" />
              <Array as="points" />
            </mxGeometry>
          </mxCell>
        </UserObject>
        <UserObject label="&lt;div style=&quot;font-size: 1px&quot;&gt;&lt;p style=&quot;text-align:center;margin-left:0;margin-right:0;margin-top:0px;margin-bottom:0px;text-indent:0;vertical-align:middle;direction:ltr;&quot;&gt;&lt;font style=&quot;font-size:11.29px;font-family:Calibri;color:#0d5273;direction:ltr;letter-spacing:0px;line-height:120%;opacity:1&quot;&gt;&amp;lt;&amp;lt;extend&amp;gt;&amp;gt;&lt;br/&gt;&lt;/font&gt;&lt;/p&gt;&lt;/div&gt;" tags="Connector" id="83">
          <mxCell style="vsdxID=160;edgeStyle=none;dashed=1;startArrow=none;endArrow=open;startSize=5;endSize=5;strokeColor=#178dc6;spacingTop=0;spacingBottom=0;spacingLeft=0;spacingRight=0;verticalAlign=middle;html=1;labelBackgroundColor=#ffffff;rounded=0;align=center;exitX=0.6123595505617978;exitY=0;exitDx=0;exitDy=0;exitPerimeter=0;entryX=0.38125;entryY=0.9791666666666666;entryDx=0;entryDy=0;entryPerimeter=0;" parent="1" source="8" target="12" edge="1">
            <mxGeometry relative="1" as="geometry">
              <mxPoint y="-1" as="offset" />
              <Array as="points" />
            </mxGeometry>
          </mxCell>
        </UserObject>
        <UserObject label="&lt;div style=&quot;font-size: 1px&quot;&gt;&lt;p style=&quot;text-align:center;margin-left:0;margin-right:0;margin-top:0px;margin-bottom:0px;text-indent:0;vertical-align:middle;direction:ltr;&quot;&gt;&lt;font style=&quot;font-size:11.29px;font-family:Calibri;color:#0d5273;direction:ltr;letter-spacing:0px;line-height:120%;opacity:1&quot;&gt;&amp;lt;&amp;lt;extend&amp;gt;&amp;gt;&lt;br/&gt;&lt;/font&gt;&lt;/p&gt;&lt;/div&gt;" tags="Connector" id="84">
          <mxCell style="vsdxID=189;edgeStyle=none;dashed=1;startArrow=none;endArrow=open;startSize=5;endSize=5;strokeColor=#178dc6;spacingTop=0;spacingBottom=0;spacingLeft=0;spacingRight=0;verticalAlign=middle;html=1;labelBackgroundColor=#ffffff;rounded=0;align=center;exitX=0.5;exitY=0;exitDx=0;exitDy=0;exitPerimeter=0;entryX=0.5;entryY=1;entryDx=0;entryDy=0;entryPerimeter=0;" parent="1" source="9" target="12" edge="1">
            <mxGeometry relative="1" as="geometry">
              <mxPoint x="-10" y="-1" as="offset" />
              <Array as="points" />
            </mxGeometry>
          </mxCell>
        </UserObject>
        <UserObject label="&lt;div style=&quot;font-size: 1px&quot;&gt;&lt;p style=&quot;text-align:center;margin-left:0;margin-right:0;margin-top:0px;margin-bottom:0px;text-indent:0;vertical-align:middle;direction:ltr;&quot;&gt;&lt;font style=&quot;font-size:11.29px;font-family:Calibri;color:#0d5273;direction:ltr;letter-spacing:0px;line-height:120%;opacity:1&quot;&gt;&amp;lt;&amp;lt;extend&amp;gt;&amp;gt;&lt;br/&gt;&lt;/font&gt;&lt;/p&gt;&lt;/div&gt;" tags="Connector" id="85">
          <mxCell style="vsdxID=194;edgeStyle=none;dashed=1;startArrow=none;endArrow=open;startSize=5;endSize=5;strokeColor=#178dc6;spacingTop=0;spacingBottom=0;spacingLeft=0;spacingRight=0;verticalAlign=middle;html=1;labelBackgroundColor=#ffffff;rounded=0;align=center;exitX=0.38125;exitY=0;exitDx=0;exitDy=0;exitPerimeter=0;entryX=0.61875;entryY=0.9791666666666666;entryDx=0;entryDy=0;entryPerimeter=0;" parent="1" source="10" target="12" edge="1">
            <mxGeometry relative="1" as="geometry">
              <mxPoint as="offset" />
              <Array as="points" />
            </mxGeometry>
          </mxCell>
        </UserObject>
        <UserObject label="&lt;div style=&quot;font-size: 1px&quot;&gt;&lt;p style=&quot;text-align:center;margin-left:0;margin-right:0;margin-top:0px;margin-bottom:0px;text-indent:0;vertical-align:middle;direction:ltr;&quot;&gt;&lt;font style=&quot;font-size:11.29px;font-family:Calibri;color:#0d5273;direction:ltr;letter-spacing:0px;line-height:120%;opacity:1&quot;&gt;&amp;lt;&amp;lt;extend&amp;gt;&amp;gt;&lt;br/&gt;&lt;/font&gt;&lt;/p&gt;&lt;/div&gt;" tags="Connector" id="86">
          <mxCell style="vsdxID=237;edgeStyle=none;dashed=1;startArrow=none;endArrow=open;startSize=5;endSize=5;strokeColor=#178dc6;spacingTop=0;spacingBottom=0;spacingLeft=0;spacingRight=0;verticalAlign=middle;html=1;labelBackgroundColor=#ffffff;rounded=0;align=center;exitX=1;exitY=0.5;exitDx=0;exitDy=0;exitPerimeter=0;entryX=0;entryY=0.5;entryDx=0;entryDy=0;entryPerimeter=0;" parent="1" source="5" target="13" edge="1">
            <mxGeometry relative="1" as="geometry">
              <mxPoint as="offset" />
              <Array as="points" />
            </mxGeometry>
          </mxCell>
        </UserObject>
        <UserObject label="&lt;div style=&quot;font-size: 1px&quot;&gt;&lt;p style=&quot;text-align:center;margin-left:0;margin-right:0;margin-top:0px;margin-bottom:0px;text-indent:0;vertical-align:middle;direction:ltr;&quot;&gt;&lt;font style=&quot;font-size:11.29px;font-family:Calibri;color:#0d5273;direction:ltr;letter-spacing:0px;line-height:120%;opacity:1&quot;&gt;&amp;lt;&amp;lt;extend&amp;gt;&amp;gt;&lt;br/&gt;&lt;/font&gt;&lt;/p&gt;&lt;/div&gt;" tags="Connector" id="87">
          <mxCell style="vsdxID=255;edgeStyle=none;dashed=1;startArrow=none;endArrow=open;startSize=5;endSize=5;strokeColor=#178dc6;spacingTop=0;spacingBottom=0;spacingLeft=0;spacingRight=0;verticalAlign=middle;html=1;labelBackgroundColor=#ffffff;rounded=0;align=center;exitX=0.63125;exitY=0.9791666666666666;exitDx=0;exitDy=0;exitPerimeter=0;entryX=0.3837837837837838;entryY=0;entryDx=0;entryDy=0;entryPerimeter=0;" parent="1" source="5" target="14" edge="1">
            <mxGeometry relative="1" as="geometry">
              <mxPoint x="-1" y="99" as="offset" />
              <Array as="points" />
            </mxGeometry>
          </mxCell>
        </UserObject>
        <mxCell id="89" parent="1" vertex="1">
          <mxGeometry x="1989" y="1242" as="geometry" />
        </mxCell>
        <UserObject label="&lt;div style=&quot;font-size: 1px&quot;&gt;&lt;p style=&quot;text-align:center;margin-left:0;margin-right:0;margin-top:0px;margin-bottom:0px;text-indent:0;vertical-align:middle;direction:ltr;&quot;&gt;&lt;font style=&quot;font-size:11.29px;font-family:Calibri;color:#0d5273;direction:ltr;letter-spacing:0px;line-height:120%;opacity:1&quot;&gt;&amp;lt;&amp;lt;extend&amp;gt;&amp;gt;&lt;br/&gt;&lt;/font&gt;&lt;/p&gt;&lt;/div&gt;" tags="Connector" id="92">
          <mxCell style="vsdxID=333;edgeStyle=none;dashed=1;startArrow=none;endArrow=open;startSize=5;endSize=5;strokeColor=#178dc6;spacingTop=0;spacingBottom=0;spacingLeft=0;spacingRight=0;verticalAlign=middle;html=1;labelBackgroundColor=#ffffff;rounded=0;align=center;exitX=0.51985559566787;exitY=1.0166666666666666;exitDx=0;exitDy=0;exitPerimeter=0;entryX=0.48044692737430167;entryY=0;entryDx=0;entryDy=0;entryPerimeter=0;" parent="1" target="18" edge="1">
            <mxGeometry relative="1" as="geometry">
              <mxPoint x="-1" y="122" as="offset" />
              <Array as="points" />
              <mxPoint x="1416" y="1609.0000000000005" as="sourcePoint" />
            </mxGeometry>
          </mxCell>
        </UserObject>
        <UserObject label="&lt;div style=&quot;font-size: 1px&quot;&gt;&lt;p style=&quot;text-align:center;margin-left:0;margin-right:0;margin-top:0px;margin-bottom:0px;text-indent:0;vertical-align:middle;direction:ltr;&quot;&gt;&lt;font style=&quot;font-size:11.29px;font-family:Calibri;color:#0d5273;direction:ltr;letter-spacing:0px;line-height:120%;opacity:1&quot;&gt;&amp;lt;&amp;lt;extend&amp;gt;&amp;gt;&lt;br/&gt;&lt;/font&gt;&lt;/p&gt;&lt;/div&gt;" tags="Connector" id="93">
          <mxCell style="vsdxID=339;edgeStyle=none;dashed=1;startArrow=none;endArrow=open;startSize=5;endSize=5;strokeColor=#178dc6;spacingTop=0;spacingBottom=0;spacingLeft=0;spacingRight=0;verticalAlign=middle;html=1;labelBackgroundColor=#ffffff;rounded=0;align=center;exitX=0.14218009478672985;exitY=0.8541666666666666;exitDx=0;exitDy=0;exitPerimeter=0;entryX=0.855595667870036;entryY=0.13333333333333333;entryDx=0;entryDy=0;entryPerimeter=0;" parent="1" target="24" edge="1">
            <mxGeometry relative="1" as="geometry">
              <mxPoint x="-1" y="26" as="offset" />
              <Array as="points" />
              <mxPoint x="1512.9999999999995" y="1317" as="sourcePoint" />
            </mxGeometry>
          </mxCell>
        </UserObject>
        <UserObject label="&lt;div style=&quot;font-size: 1px&quot;&gt;&lt;p style=&quot;text-align:center;margin-left:0;margin-right:0;margin-top:0px;margin-bottom:0px;text-indent:0;vertical-align:middle;direction:ltr;&quot;&gt;&lt;font style=&quot;font-size:11.29px;font-family:Calibri;color:#0d5273;direction:ltr;letter-spacing:0px;line-height:120%;opacity:1&quot;&gt;&amp;lt;&amp;lt;extend&amp;gt;&amp;gt;&lt;br/&gt;&lt;/font&gt;&lt;/p&gt;&lt;/div&gt;" tags="Connector" id="94">
          <mxCell style="vsdxID=357;edgeStyle=none;dashed=1;startArrow=none;endArrow=open;startSize=5;endSize=5;strokeColor=#178dc6;spacingTop=0;spacingBottom=0;spacingLeft=0;spacingRight=0;verticalAlign=middle;html=1;labelBackgroundColor=#ffffff;rounded=0;align=center;exitX=0.30538922155688625;exitY=0.9583333333333334;exitDx=0;exitDy=0;exitPerimeter=0;entryX=0.6498194945848376;entryY=0.016666666666666666;entryDx=0;entryDy=0;entryPerimeter=0;" parent="1" source="15" edge="1">
            <mxGeometry relative="1" as="geometry">
              <mxPoint y="45" as="offset" />
              <Array as="points" />
              <mxPoint x="1452.0000000000005" y="1549.0000000000005" as="targetPoint" />
            </mxGeometry>
          </mxCell>
        </UserObject>
        <UserObject label="&lt;div style=&quot;font-size: 1px&quot;&gt;&lt;p style=&quot;text-align:center;margin-left:0;margin-right:0;margin-top:0px;margin-bottom:0px;text-indent:0;vertical-align:middle;direction:ltr;&quot;&gt;&lt;font style=&quot;font-size:11.29px;font-family:Calibri;color:#0d5273;direction:ltr;letter-spacing:0px;line-height:120%;opacity:1&quot;&gt;&amp;lt;&amp;lt;extend&amp;gt;&amp;gt;&lt;br/&gt;&lt;/font&gt;&lt;/p&gt;&lt;/div&gt;" tags="Connector" id="98">
          <mxCell style="vsdxID=381;edgeStyle=none;dashed=1;startArrow=none;endArrow=open;startSize=5;endSize=5;strokeColor=#178dc6;spacingTop=0;spacingBottom=0;spacingLeft=0;spacingRight=0;verticalAlign=middle;html=1;labelBackgroundColor=#ffffff;rounded=0;align=center;exitX=0.547486033519553;exitY=1;exitDx=0;exitDy=0;exitPerimeter=0;entryX=0.44375;entryY=0;entryDx=0;entryDy=0;entryPerimeter=0;" parent="1" source="18" edge="1">
            <mxGeometry relative="1" as="geometry">
              <mxPoint y="149" as="offset" />
              <Array as="points" />
              <mxPoint x="1572.0000000000005" y="2173" as="targetPoint" />
            </mxGeometry>
          </mxCell>
        </UserObject>
        <UserObject label="&lt;div style=&quot;font-size: 1px&quot;&gt;&lt;p style=&quot;text-align:center;margin-left:0;margin-right:0;margin-top:0px;margin-bottom:0px;text-indent:0;vertical-align:middle;direction:ltr;&quot;&gt;&lt;font style=&quot;font-size:11.29px;font-family:Calibri;color:#0d5273;direction:ltr;letter-spacing:0px;line-height:120%;opacity:1&quot;&gt;&amp;lt;&amp;lt;extend&amp;gt;&amp;gt;&lt;br/&gt;&lt;/font&gt;&lt;/p&gt;&lt;/div&gt;" tags="Connector" id="99">
          <mxCell style="vsdxID=395;edgeStyle=none;dashed=1;startArrow=none;endArrow=open;startSize=5;endSize=5;strokeColor=#178dc6;spacingTop=0;spacingBottom=0;spacingLeft=0;spacingRight=0;verticalAlign=middle;html=1;labelBackgroundColor=#ffffff;rounded=0;align=center;exitX=0.06859205776173286;exitY=0.75;exitDx=0;exitDy=0;exitPerimeter=0;entryX=0.96875;entryY=0.3137254901960784;entryDx=0;entryDy=0;entryPerimeter=0;" parent="1" target="25" edge="1">
            <mxGeometry relative="1" as="geometry">
              <mxPoint x="-1" y="22" as="offset" />
              <Array as="points" />
              <mxPoint x="1116.9999999999995" y="1393.0000000000005" as="sourcePoint" />
            </mxGeometry>
          </mxCell>
        </UserObject>
        <UserObject label="&lt;div style=&quot;font-size: 1px&quot;&gt;&lt;p style=&quot;text-align:center;margin-left:0;margin-right:0;margin-top:0px;margin-bottom:0px;text-indent:0;vertical-align:middle;direction:ltr;&quot;&gt;&lt;font style=&quot;font-size:11.29px;font-family:Calibri;color:#0d5273;direction:ltr;letter-spacing:0px;line-height:120%;opacity:1&quot;&gt;&amp;lt;&amp;lt;extend&amp;gt;&amp;gt;&lt;br/&gt;&lt;/font&gt;&lt;/p&gt;&lt;/div&gt;" tags="Connector" id="100">
          <mxCell style="vsdxID=400;edgeStyle=none;dashed=1;startArrow=none;endArrow=open;startSize=5;endSize=5;strokeColor=#178dc6;spacingTop=0;spacingBottom=0;spacingLeft=0;spacingRight=0;verticalAlign=middle;html=1;labelBackgroundColor=#ffffff;rounded=0;align=center;exitX=0.3249097472924188;exitY=0.9666666666666667;exitDx=0;exitDy=0;exitPerimeter=0;entryX=0.6771300448430493;entryY=0.020833333333333332;entryDx=0;entryDy=0;entryPerimeter=0;" parent="1" target="26" edge="1">
            <mxGeometry relative="1" as="geometry">
              <mxPoint x="-1" y="108" as="offset" />
              <Array as="points" />
              <mxPoint x="1187.9999999999995" y="1406" as="sourcePoint" />
            </mxGeometry>
          </mxCell>
        </UserObject>
        <UserObject label="&lt;div style=&quot;font-size: 1px&quot;&gt;&lt;p style=&quot;text-align:center;margin-left:0;margin-right:0;margin-top:0px;margin-bottom:0px;text-indent:0;vertical-align:middle;direction:ltr;&quot;&gt;&lt;font style=&quot;font-size:11.29px;font-family:Calibri;color:#0d5273;direction:ltr;letter-spacing:0px;line-height:120%;opacity:1&quot;&gt;&amp;lt;&amp;lt;extend&amp;gt;&amp;gt;&lt;br/&gt;&lt;/font&gt;&lt;/p&gt;&lt;/div&gt;" tags="Connector" id="101">
          <mxCell style="vsdxID=407;edgeStyle=none;dashed=1;startArrow=none;endArrow=open;startSize=5;endSize=5;strokeColor=#178dc6;spacingTop=0;spacingBottom=0;spacingLeft=0;spacingRight=0;verticalAlign=middle;html=1;labelBackgroundColor=#ffffff;rounded=0;align=center;exitX=0.05625;exitY=0.7450980392156863;exitDx=0;exitDy=0;exitPerimeter=0;entryX=0.94375;entryY=0.27450980392156865;entryDx=0;entryDy=0;entryPerimeter=0;" parent="1" target="27" edge="1">
            <mxGeometry relative="1" as="geometry">
              <mxPoint y="28" as="offset" />
              <Array as="points" />
              <mxPoint x="716" y="1446.9999999999995" as="sourcePoint" />
            </mxGeometry>
          </mxCell>
        </UserObject>
        <UserObject label="&lt;div style=&quot;font-size: 1px&quot;&gt;&lt;p style=&quot;text-align:center;margin-left:0;margin-right:0;margin-top:0px;margin-bottom:0px;text-indent:0;vertical-align:middle;direction:ltr;&quot;&gt;&lt;font style=&quot;font-size:11.29px;font-family:Calibri;color:#0d5273;direction:ltr;letter-spacing:0px;line-height:120%;opacity:1&quot;&gt;&amp;lt;&amp;lt;extend&amp;gt;&amp;gt;&lt;br/&gt;&lt;/font&gt;&lt;/p&gt;&lt;/div&gt;" tags="Connector" id="102">
          <mxCell style="vsdxID=412;edgeStyle=none;dashed=1;startArrow=none;endArrow=open;startSize=5;endSize=5;strokeColor=#178dc6;spacingTop=0;spacingBottom=0;spacingLeft=0;spacingRight=0;verticalAlign=middle;html=1;labelBackgroundColor=#ffffff;rounded=0;align=center;exitX=0.28125;exitY=0.9607843137254902;exitDx=0;exitDy=0;exitPerimeter=0;entryX=0.70625;entryY=0.041666666666666664;entryDx=0;entryDy=0;entryPerimeter=0;" parent="1" target="28" edge="1">
            <mxGeometry relative="1" as="geometry">
              <mxPoint y="118" as="offset" />
              <Array as="points" />
              <mxPoint x="752" y="1457.9999999999995" as="sourcePoint" />
            </mxGeometry>
          </mxCell>
        </UserObject>
        <UserObject label="&lt;div style=&quot;font-size: 1px&quot;&gt;&lt;p style=&quot;text-align:center;margin-left:0;margin-right:0;margin-top:0px;margin-bottom:0px;text-indent:0;vertical-align:middle;direction:ltr;&quot;&gt;&lt;font style=&quot;font-size:11.29px;font-family:Calibri;color:#0d5273;direction:ltr;letter-spacing:0px;line-height:120%;opacity:1&quot;&gt;&amp;lt;&amp;lt;extend&amp;gt;&amp;gt;&lt;br/&gt;&lt;/font&gt;&lt;/p&gt;&lt;/div&gt;" tags="Connector" id="103">
          <mxCell style="vsdxID=419;edgeStyle=none;dashed=1;startArrow=none;endArrow=open;startSize=5;endSize=5;strokeColor=#178dc6;spacingTop=0;spacingBottom=0;spacingLeft=0;spacingRight=0;verticalAlign=middle;html=1;labelBackgroundColor=#ffffff;rounded=0;align=center;exitX=0.4125560538116592;exitY=0.9791666666666666;exitDx=0;exitDy=0;exitPerimeter=0;entryX=0.63125;entryY=0.0196078431372549;entryDx=0;entryDy=0;entryPerimeter=0;" parent="1" target="29" edge="1">
            <mxGeometry relative="1" as="geometry">
              <mxPoint y="101" as="offset" />
              <Array as="points" />
              <mxPoint x="777" y="1656" as="sourcePoint" />
            </mxGeometry>
          </mxCell>
        </UserObject>
        <UserObject label="&lt;div style=&quot;font-size: 1px&quot;&gt;&lt;p style=&quot;text-align:center;margin-left:0;margin-right:0;margin-top:0px;margin-bottom:0px;text-indent:0;vertical-align:middle;direction:ltr;&quot;&gt;&lt;font style=&quot;font-size:11.29px;font-family:Calibri;color:#0d5273;direction:ltr;letter-spacing:0px;line-height:120%;opacity:1&quot;&gt;&amp;lt;&amp;lt;extend&amp;gt;&amp;gt;&lt;br/&gt;&lt;/font&gt;&lt;/p&gt;&lt;/div&gt;" tags="Connector" id="104">
          <mxCell style="vsdxID=424;edgeStyle=none;dashed=1;startArrow=none;endArrow=open;startSize=5;endSize=5;strokeColor=#178dc6;spacingTop=0;spacingBottom=0;spacingLeft=0;spacingRight=0;verticalAlign=middle;html=1;labelBackgroundColor=#ffffff;rounded=0;align=center;exitX=0.5067264573991032;exitY=1;exitDx=0;exitDy=0;exitPerimeter=0;entryX=0.49375;entryY=0;entryDx=0;entryDy=0;entryPerimeter=0;" parent="1" target="30" edge="1">
            <mxGeometry relative="1" as="geometry">
              <mxPoint x="6" y="102" as="offset" />
              <Array as="points" />
              <mxPoint x="798" y="1656.999999999999" as="sourcePoint" />
            </mxGeometry>
          </mxCell>
        </UserObject>
        <UserObject label="&lt;div style=&quot;font-size: 1px&quot;&gt;&lt;font style=&quot;font-size:16.93px;font-family:Calibri;color:#ffffff;direction:ltr;letter-spacing:0px;line-height:120%;opacity:1&quot;&gt;Създаване на мол&lt;br&gt;&lt;/font&gt;&lt;/div&gt;" tags="Background" id="jTA-YyCPrmTPrOojGD1L-106">
          <mxCell style="verticalAlign=middle;align=center;overflow=width;vsdxID=141;fillColor=#000000;gradientColor=none;shape=stencil(vVHLDsIgEPwajiQI6RfU+h8bu22JCGRB2/69kG1iazx58DazM/vIjjBtmiCi0CplCjecbZ8nYc5Ca+snJJsLEqYTph0C4Ujh4XvmEaqzont41gkL96naodXKrGF6YSfQtUi0OXXDVlqPfJNP6usotUhYbJIUMmQb/GGrAxpRljVycDBuc1hKM2LclX8/7H9nFfB+82Cd45T2+mcspcSRmu4F);strokeColor=#ffffff;points=[];labelBackgroundColor=none;rounded=0;html=1;whiteSpace=wrap;" vertex="1" parent="1">
            <mxGeometry x="2330" y="630" width="160" height="48" as="geometry" />
          </mxCell>
        </UserObject>
        <UserObject label="&lt;div style=&quot;font-size: 1px&quot;&gt;&lt;p style=&quot;text-align:center;margin-left:0;margin-right:0;margin-top:0px;margin-bottom:0px;text-indent:0;vertical-align:middle;direction:ltr;&quot;&gt;&lt;font style=&quot;font-size:16.93px;font-family:Calibri;color:#ffffff;direction:ltr;letter-spacing:0px;line-height:120%;opacity:1&quot;&gt;Създаване на длъжност&lt;/font&gt;&lt;font style=&quot;font-size:16.93px;font-family:Themed;color:#ffffff;direction:ltr;letter-spacing:0px;line-height:120%;opacity:1&quot;&gt;&lt;br&gt;&lt;/font&gt;&lt;/p&gt;&lt;/div&gt;" tags="Background" id="jTA-YyCPrmTPrOojGD1L-108">
          <mxCell style="verticalAlign=middle;align=center;overflow=width;vsdxID=129;fillColor=#000000;gradientColor=none;shape=stencil(vVHLDsIgEPwajiQI6RfU+h8bu22JCGRB2/69kG1iazx58DazM/vIjjBtmiCi0CplCjecbZ8nYc5Ca+snJJsLEqYTph0C4Ujh4XvmEaqzont41gkL96naodXKrGF6YSfQtUi0OXXDVlqPfJNP6usotUhYbJIUMmQb/GGrAxpRljVycDBuc1hKM2LclX8/7H9nFfB+82Cd45T2+mcspcSRmu4F);strokeColor=#ffffff;points=[];labelBackgroundColor=none;rounded=0;html=1;whiteSpace=wrap;" vertex="1" parent="1">
            <mxGeometry x="1516" y="630" width="178" height="48" as="geometry" />
          </mxCell>
        </UserObject>
        <UserObject label="&lt;div style=&quot;font-size: 1px&quot;&gt;&lt;p style=&quot;text-align:center;margin-left:0;margin-right:0;margin-top:0px;margin-bottom:0px;text-indent:0;vertical-align:middle;direction:ltr;&quot;&gt;&lt;font style=&quot;font-size:16.93px;font-family:Calibri;color:#ffffff;direction:ltr;letter-spacing:0px;line-height:120%;opacity:1&quot;&gt;Създаване на служител&lt;/font&gt;&lt;font style=&quot;font-size:16.93px;font-family:Themed;color:#ffffff;direction:ltr;letter-spacing:0px;line-height:120%;opacity:1&quot;&gt;&lt;br&gt;&lt;/font&gt;&lt;/p&gt;&lt;/div&gt;" tags="Background" id="jTA-YyCPrmTPrOojGD1L-110">
          <mxCell style="verticalAlign=middle;align=center;overflow=width;vsdxID=129;fillColor=#000000;gradientColor=none;shape=stencil(vVHLDsIgEPwajiQI6RfU+h8bu22JCGRB2/69kG1iazx58DazM/vIjjBtmiCi0CplCjecbZ8nYc5Ca+snJJsLEqYTph0C4Ujh4XvmEaqzont41gkL96naodXKrGF6YSfQtUi0OXXDVlqPfJNP6usotUhYbJIUMmQb/GGrAxpRljVycDBuc1hKM2LclX8/7H9nFfB+82Cd45T2+mcspcSRmu4F);strokeColor=#ffffff;points=[];labelBackgroundColor=none;rounded=0;html=1;whiteSpace=wrap;" vertex="1" parent="1">
            <mxGeometry x="1308" y="630" width="178" height="48" as="geometry" />
          </mxCell>
        </UserObject>
        <UserObject label="&lt;div style=&quot;font-size: 1px&quot;&gt;&lt;p style=&quot;text-align:center;margin-left:0;margin-right:0;margin-top:0px;margin-bottom:0px;text-indent:0;vertical-align:middle;direction:ltr;&quot;&gt;&lt;font style=&quot;font-size:16.93px;font-family:Calibri;color:#ffffff;direction:ltr;letter-spacing:0px;line-height:120%;opacity:1&quot;&gt;Създаване на продажба&lt;/font&gt;&lt;font style=&quot;font-size:16.93px;font-family:Themed;color:#ffffff;direction:ltr;letter-spacing:0px;line-height:120%;opacity:1&quot;&gt;&lt;br&gt;&lt;/font&gt;&lt;/p&gt;&lt;/div&gt;" tags="Background" id="jTA-YyCPrmTPrOojGD1L-112">
          <mxCell style="verticalAlign=middle;align=center;overflow=width;vsdxID=129;fillColor=#000000;gradientColor=none;shape=stencil(vVHLDsIgEPwajiQI6RfU+h8bu22JCGRB2/69kG1iazx58DazM/vIjjBtmiCi0CplCjecbZ8nYc5Ca+snJJsLEqYTph0C4Ujh4XvmEaqzont41gkL96naodXKrGF6YSfQtUi0OXXDVlqPfJNP6usotUhYbJIUMmQb/GGrAxpRljVycDBuc1hKM2LclX8/7H9nFfB+82Cd45T2+mcspcSRmu4F);strokeColor=#ffffff;points=[];labelBackgroundColor=none;rounded=0;html=1;whiteSpace=wrap;" vertex="1" parent="1">
            <mxGeometry x="1080" y="630" width="178" height="48" as="geometry" />
          </mxCell>
        </UserObject>
        <UserObject label="&lt;div style=&quot;font-size: 1px&quot;&gt;&lt;p style=&quot;text-align:center;margin-left:0;margin-right:0;margin-top:0px;margin-bottom:0px;text-indent:0;vertical-align:middle;direction:ltr;&quot;&gt;&lt;font style=&quot;font-size:16.93px;font-family:Calibri;color:#ffffff;direction:ltr;letter-spacing:0px;line-height:120%;opacity:1&quot;&gt;Създаване на клиент&lt;/font&gt;&lt;font style=&quot;font-size:16.93px;font-family:Themed;color:#ffffff;direction:ltr;letter-spacing:0px;line-height:120%;opacity:1&quot;&gt;&lt;br&gt;&lt;/font&gt;&lt;/p&gt;&lt;/div&gt;" tags="Background" id="jTA-YyCPrmTPrOojGD1L-114">
          <mxCell style="verticalAlign=middle;align=center;overflow=width;vsdxID=129;fillColor=#000000;gradientColor=none;shape=stencil(vVHLDsIgEPwajiQI6RfU+h8bu22JCGRB2/69kG1iazx58DazM/vIjjBtmiCi0CplCjecbZ8nYc5Ca+snJJsLEqYTph0C4Ujh4XvmEaqzont41gkL96naodXKrGF6YSfQtUi0OXXDVlqPfJNP6usotUhYbJIUMmQb/GGrAxpRljVycDBuc1hKM2LclX8/7H9nFfB+82Cd45T2+mcspcSRmu4F);strokeColor=#ffffff;points=[];labelBackgroundColor=none;rounded=0;html=1;whiteSpace=wrap;" vertex="1" parent="1">
            <mxGeometry x="2510" y="630" width="178" height="48" as="geometry" />
          </mxCell>
        </UserObject>
        <UserObject label="&lt;div style=&quot;font-size: 1px&quot;&gt;&lt;p style=&quot;text-align:center;margin-left:0;margin-right:0;margin-top:0px;margin-bottom:0px;text-indent:0;vertical-align:middle;direction:ltr;&quot;&gt;&lt;font style=&quot;font-size:11.29px;font-family:Calibri;color:#0d5273;direction:ltr;letter-spacing:0px;line-height:120%;opacity:1&quot;&gt;&amp;lt;&amp;lt;extend&amp;gt;&amp;gt;&lt;br/&gt;&lt;/font&gt;&lt;/p&gt;&lt;/div&gt;" tags="Connector" id="jTA-YyCPrmTPrOojGD1L-116">
          <mxCell style="vsdxID=130;edgeStyle=none;dashed=1;startArrow=none;endArrow=open;startSize=5;endSize=5;strokeColor=#178dc6;spacingTop=0;spacingBottom=0;spacingLeft=0;spacingRight=0;verticalAlign=middle;html=1;labelBackgroundColor=#ffffff;rounded=0;align=center;entryX=0.71;entryY=0.979;entryDx=0;entryDy=0;entryPerimeter=0;" edge="1" parent="1" target="jTA-YyCPrmTPrOojGD1L-112">
            <mxGeometry relative="1" as="geometry">
              <mxPoint x="-1" y="-1" as="offset" />
              <Array as="points" />
              <mxPoint x="2000" y="1190" as="sourcePoint" />
              <mxPoint x="1828" y="688" as="targetPoint" />
            </mxGeometry>
          </mxCell>
        </UserObject>
        <UserObject label="&lt;div style=&quot;font-size: 1px&quot;&gt;&lt;p style=&quot;text-align:center;margin-left:0;margin-right:0;margin-top:0px;margin-bottom:0px;text-indent:0;vertical-align:middle;direction:ltr;&quot;&gt;&lt;font style=&quot;font-size:11.29px;font-family:Calibri;color:#0d5273;direction:ltr;letter-spacing:0px;line-height:120%;opacity:1&quot;&gt;&amp;lt;&amp;lt;extend&amp;gt;&amp;gt;&lt;br/&gt;&lt;/font&gt;&lt;/p&gt;&lt;/div&gt;" tags="Connector" id="jTA-YyCPrmTPrOojGD1L-117">
          <mxCell style="vsdxID=130;edgeStyle=none;dashed=1;startArrow=none;endArrow=open;startSize=5;endSize=5;strokeColor=#178dc6;spacingTop=0;spacingBottom=0;spacingLeft=0;spacingRight=0;verticalAlign=middle;html=1;labelBackgroundColor=#ffffff;rounded=0;align=center;entryX=0.603;entryY=1;entryDx=0;entryDy=0;entryPerimeter=0;" edge="1" parent="1" target="jTA-YyCPrmTPrOojGD1L-110">
            <mxGeometry relative="1" as="geometry">
              <mxPoint x="-1" y="-1" as="offset" />
              <Array as="points" />
              <mxPoint x="2000" y="1190" as="sourcePoint" />
              <mxPoint x="1838" y="698" as="targetPoint" />
            </mxGeometry>
          </mxCell>
        </UserObject>
        <UserObject label="&lt;div style=&quot;font-size: 1px&quot;&gt;&lt;p style=&quot;text-align:center;margin-left:0;margin-right:0;margin-top:0px;margin-bottom:0px;text-indent:0;vertical-align:middle;direction:ltr;&quot;&gt;&lt;font style=&quot;font-size:11.29px;font-family:Calibri;color:#0d5273;direction:ltr;letter-spacing:0px;line-height:120%;opacity:1&quot;&gt;&amp;lt;&amp;lt;extend&amp;gt;&amp;gt;&lt;br/&gt;&lt;/font&gt;&lt;/p&gt;&lt;/div&gt;" tags="Connector" id="jTA-YyCPrmTPrOojGD1L-118">
          <mxCell style="vsdxID=130;edgeStyle=none;dashed=1;startArrow=none;endArrow=open;startSize=5;endSize=5;strokeColor=#178dc6;spacingTop=0;spacingBottom=0;spacingLeft=0;spacingRight=0;verticalAlign=middle;html=1;labelBackgroundColor=#ffffff;rounded=0;align=center;entryX=0.558;entryY=0.98;entryDx=0;entryDy=0;entryPerimeter=0;" edge="1" parent="1" source="5" target="jTA-YyCPrmTPrOojGD1L-108">
            <mxGeometry relative="1" as="geometry">
              <mxPoint x="-1" y="-1" as="offset" />
              <Array as="points" />
              <mxPoint x="2034" y="1222" as="sourcePoint" />
              <mxPoint x="1848" y="708" as="targetPoint" />
            </mxGeometry>
          </mxCell>
        </UserObject>
        <UserObject label="&lt;div style=&quot;font-size: 1px&quot;&gt;&lt;p style=&quot;text-align:center;margin-left:0;margin-right:0;margin-top:0px;margin-bottom:0px;text-indent:0;vertical-align:middle;direction:ltr;&quot;&gt;&lt;font style=&quot;font-size:11.29px;font-family:Calibri;color:#0d5273;direction:ltr;letter-spacing:0px;line-height:120%;opacity:1&quot;&gt;&amp;lt;&amp;lt;extend&amp;gt;&amp;gt;&lt;br/&gt;&lt;/font&gt;&lt;/p&gt;&lt;/div&gt;" tags="Connector" id="jTA-YyCPrmTPrOojGD1L-119">
          <mxCell style="vsdxID=130;edgeStyle=none;dashed=1;startArrow=none;endArrow=open;startSize=5;endSize=5;strokeColor=#178dc6;spacingTop=0;spacingBottom=0;spacingLeft=0;spacingRight=0;verticalAlign=middle;html=1;labelBackgroundColor=#ffffff;rounded=0;align=center;exitX=0.442;exitY=-0.038;exitDx=0;exitDy=0;exitPerimeter=0;entryX=0.376;entryY=0.96;entryDx=0;entryDy=0;entryPerimeter=0;" edge="1" parent="1" source="5" target="jTA-YyCPrmTPrOojGD1L-106">
            <mxGeometry relative="1" as="geometry">
              <mxPoint x="-1" y="-1" as="offset" />
              <Array as="points" />
              <mxPoint x="2044" y="1232" as="sourcePoint" />
              <mxPoint x="1858" y="718" as="targetPoint" />
            </mxGeometry>
          </mxCell>
        </UserObject>
        <UserObject label="&lt;div style=&quot;font-size: 1px&quot;&gt;&lt;p style=&quot;text-align:center;margin-left:0;margin-right:0;margin-top:0px;margin-bottom:0px;text-indent:0;vertical-align:middle;direction:ltr;&quot;&gt;&lt;font style=&quot;font-size:11.29px;font-family:Calibri;color:#0d5273;direction:ltr;letter-spacing:0px;line-height:120%;opacity:1&quot;&gt;&amp;lt;&amp;lt;extend&amp;gt;&amp;gt;&lt;br/&gt;&lt;/font&gt;&lt;/p&gt;&lt;/div&gt;" tags="Connector" id="jTA-YyCPrmTPrOojGD1L-120">
          <mxCell style="vsdxID=130;edgeStyle=none;dashed=1;startArrow=none;endArrow=open;startSize=5;endSize=5;strokeColor=#178dc6;spacingTop=0;spacingBottom=0;spacingLeft=0;spacingRight=0;verticalAlign=middle;html=1;labelBackgroundColor=#ffffff;rounded=0;align=center;exitX=0.451;exitY=-0.038;exitDx=0;exitDy=0;exitPerimeter=0;entryX=0.418;entryY=0.94;entryDx=0;entryDy=0;entryPerimeter=0;" edge="1" parent="1" source="5" target="jTA-YyCPrmTPrOojGD1L-114">
            <mxGeometry relative="1" as="geometry">
              <mxPoint x="-1" y="-1" as="offset" />
              <Array as="points" />
              <mxPoint x="2054" y="1242" as="sourcePoint" />
              <mxPoint x="1868" y="728" as="targetPoint" />
            </mxGeometry>
          </mxCell>
        </UserObject>
        <UserObject label="&lt;div style=&quot;font-size: 1px&quot;&gt;&lt;p style=&quot;text-align:center;margin-left:0;margin-right:0;margin-top:0px;margin-bottom:0px;text-indent:0;vertical-align:middle;direction:ltr;&quot;&gt;&lt;font style=&quot;font-size:11.29px;font-family:Calibri;color:#0d5273;direction:ltr;letter-spacing:0px;line-height:120%;opacity:1&quot;&gt;&amp;lt;&amp;lt;extend&amp;gt;&amp;gt;&lt;br/&gt;&lt;/font&gt;&lt;/p&gt;&lt;/div&gt;" tags="Connector" id="jTA-YyCPrmTPrOojGD1L-121">
          <mxCell style="vsdxID=160;edgeStyle=none;dashed=1;startArrow=none;endArrow=open;startSize=5;endSize=5;strokeColor=#178dc6;spacingTop=0;spacingBottom=0;spacingLeft=0;spacingRight=0;verticalAlign=middle;html=1;labelBackgroundColor=#ffffff;rounded=0;align=center;exitX=0.487;exitY=0.035;exitDx=0;exitDy=0;exitPerimeter=0;entryX=0.084;entryY=0.84;entryDx=0;entryDy=0;entryPerimeter=0;" edge="1" parent="1" source="jTA-YyCPrmTPrOojGD1L-112" target="12">
            <mxGeometry relative="1" as="geometry">
              <mxPoint y="-1" as="offset" />
              <Array as="points" />
              <mxPoint x="1837" y="640" as="sourcePoint" />
              <mxPoint x="1798" y="87" as="targetPoint" />
            </mxGeometry>
          </mxCell>
        </UserObject>
        <UserObject label="&lt;div style=&quot;font-size: 1px&quot;&gt;&lt;p style=&quot;text-align:center;margin-left:0;margin-right:0;margin-top:0px;margin-bottom:0px;text-indent:0;vertical-align:middle;direction:ltr;&quot;&gt;&lt;font style=&quot;font-size:11.29px;font-family:Calibri;color:#0d5273;direction:ltr;letter-spacing:0px;line-height:120%;opacity:1&quot;&gt;&amp;lt;&amp;lt;extend&amp;gt;&amp;gt;&lt;br/&gt;&lt;/font&gt;&lt;/p&gt;&lt;/div&gt;" tags="Connector" id="jTA-YyCPrmTPrOojGD1L-122">
          <mxCell style="vsdxID=160;edgeStyle=none;dashed=1;startArrow=none;endArrow=open;startSize=5;endSize=5;strokeColor=#178dc6;spacingTop=0;spacingBottom=0;spacingLeft=0;spacingRight=0;verticalAlign=middle;html=1;labelBackgroundColor=#ffffff;rounded=0;align=center;exitX=0.472;exitY=-0.049;exitDx=0;exitDy=0;exitPerimeter=0;entryX=0.385;entryY=0.966;entryDx=0;entryDy=0;entryPerimeter=0;" edge="1" parent="1" source="jTA-YyCPrmTPrOojGD1L-108" target="12">
            <mxGeometry relative="1" as="geometry">
              <mxPoint y="-1" as="offset" />
              <Array as="points" />
              <mxPoint x="1847" y="650" as="sourcePoint" />
              <mxPoint x="1780" y="80" as="targetPoint" />
            </mxGeometry>
          </mxCell>
        </UserObject>
        <UserObject label="&lt;div style=&quot;font-size: 1px&quot;&gt;&lt;p style=&quot;text-align:center;margin-left:0;margin-right:0;margin-top:0px;margin-bottom:0px;text-indent:0;vertical-align:middle;direction:ltr;&quot;&gt;&lt;font style=&quot;font-size:11.29px;font-family:Calibri;color:#0d5273;direction:ltr;letter-spacing:0px;line-height:120%;opacity:1&quot;&gt;&amp;lt;&amp;lt;extend&amp;gt;&amp;gt;&lt;br/&gt;&lt;/font&gt;&lt;/p&gt;&lt;/div&gt;" tags="Connector" id="jTA-YyCPrmTPrOojGD1L-123">
          <mxCell style="vsdxID=160;edgeStyle=none;dashed=1;startArrow=none;endArrow=open;startSize=5;endSize=5;strokeColor=#178dc6;spacingTop=0;spacingBottom=0;spacingLeft=0;spacingRight=0;verticalAlign=middle;html=1;labelBackgroundColor=#ffffff;rounded=0;align=center;exitX=0.494;exitY=0.007;exitDx=0;exitDy=0;exitPerimeter=0;entryX=0.331;entryY=0.968;entryDx=0;entryDy=0;entryPerimeter=0;" edge="1" parent="1" source="jTA-YyCPrmTPrOojGD1L-110" target="12">
            <mxGeometry relative="1" as="geometry">
              <mxPoint y="-1" as="offset" />
              <Array as="points" />
              <mxPoint x="1857" y="660" as="sourcePoint" />
              <mxPoint x="1740" y="70" as="targetPoint" />
            </mxGeometry>
          </mxCell>
        </UserObject>
        <UserObject label="&lt;div style=&quot;font-size: 1px&quot;&gt;&lt;p style=&quot;text-align:center;margin-left:0;margin-right:0;margin-top:0px;margin-bottom:0px;text-indent:0;vertical-align:middle;direction:ltr;&quot;&gt;&lt;font style=&quot;font-size:11.29px;font-family:Calibri;color:#0d5273;direction:ltr;letter-spacing:0px;line-height:120%;opacity:1&quot;&gt;&amp;lt;&amp;lt;extend&amp;gt;&amp;gt;&lt;br/&gt;&lt;/font&gt;&lt;/p&gt;&lt;/div&gt;" tags="Connector" id="jTA-YyCPrmTPrOojGD1L-124">
          <mxCell style="vsdxID=160;edgeStyle=none;dashed=1;startArrow=none;endArrow=open;startSize=5;endSize=5;strokeColor=#178dc6;spacingTop=0;spacingBottom=0;spacingLeft=0;spacingRight=0;verticalAlign=middle;html=1;labelBackgroundColor=#ffffff;rounded=0;align=center;entryX=0.713;entryY=0.922;entryDx=0;entryDy=0;entryPerimeter=0;" edge="1" parent="1" source="jTA-YyCPrmTPrOojGD1L-106" target="12">
            <mxGeometry relative="1" as="geometry">
              <mxPoint y="-1" as="offset" />
              <Array as="points" />
              <mxPoint x="1867" y="670" as="sourcePoint" />
              <mxPoint x="1828" y="80" as="targetPoint" />
            </mxGeometry>
          </mxCell>
        </UserObject>
        <UserObject label="&lt;div style=&quot;font-size: 1px&quot;&gt;&lt;p style=&quot;text-align:center;margin-left:0;margin-right:0;margin-top:0px;margin-bottom:0px;text-indent:0;vertical-align:middle;direction:ltr;&quot;&gt;&lt;font style=&quot;font-size:11.29px;font-family:Calibri;color:#0d5273;direction:ltr;letter-spacing:0px;line-height:120%;opacity:1&quot;&gt;&amp;lt;&amp;lt;extend&amp;gt;&amp;gt;&lt;br/&gt;&lt;/font&gt;&lt;/p&gt;&lt;/div&gt;" tags="Connector" id="jTA-YyCPrmTPrOojGD1L-125">
          <mxCell style="vsdxID=160;edgeStyle=none;dashed=1;startArrow=none;endArrow=open;startSize=5;endSize=5;strokeColor=#178dc6;spacingTop=0;spacingBottom=0;spacingLeft=0;spacingRight=0;verticalAlign=middle;html=1;labelBackgroundColor=#ffffff;rounded=0;align=center;entryX=0.893;entryY=0.924;entryDx=0;entryDy=0;entryPerimeter=0;" edge="1" parent="1" source="jTA-YyCPrmTPrOojGD1L-114" target="12">
            <mxGeometry relative="1" as="geometry">
              <mxPoint y="-1" as="offset" />
              <Array as="points" />
              <mxPoint x="1877" y="680" as="sourcePoint" />
              <mxPoint x="1838" y="127" as="targetPoint" />
            </mxGeometry>
          </mxCell>
        </UserObject>
        <UserObject label="&lt;div style=&quot;font-size: 1px&quot;&gt;&lt;p style=&quot;text-align:center;margin-left:0;margin-right:0;margin-top:0px;margin-bottom:0px;text-indent:0;vertical-align:middle;direction:ltr;&quot;&gt;&lt;font style=&quot;font-size:16.93px;font-family:Calibri;color:#ffffff;direction:ltr;letter-spacing:0px;line-height:120%;opacity:1&quot;&gt;Отчет на финансовата сума за всички продажби&lt;br&gt;&lt;/font&gt;&lt;/p&gt;&lt;/div&gt;" tags="Background" id="jTA-YyCPrmTPrOojGD1L-126">
          <mxCell style="verticalAlign=middle;align=center;overflow=width;vsdxID=494;fillColor=#000000;gradientColor=none;shape=stencil(vVHLDsIgEPwajiQI6RfU+h8bu22JCGRB2/69kG1iazx58DazM/vIjjBtmiCi0CplCjecbZ8nYc5Ca+snJJsLEqYTph0C4Ujh4XvmEaqzont41gkL96naodXKrGF6YSfQtUi0OXXDVlqPfJNP6usotUhYbJIUMmQb/GGrAxpRljVycDBuc1hKM2LclX8/7H9nFfB+82Cd45T2+mcspcSRmu4F);strokeColor=#ffffff;points=[];labelBackgroundColor=none;rounded=0;html=1;whiteSpace=wrap;" vertex="1" parent="1">
            <mxGeometry x="2790" y="1174" width="341" height="84" as="geometry" />
          </mxCell>
        </UserObject>
        <UserObject label="&lt;div style=&quot;font-size: 1px&quot;&gt;&lt;p style=&quot;text-align:center;margin-left:0;margin-right:0;margin-top:0px;margin-bottom:0px;text-indent:0;vertical-align:middle;direction:ltr;&quot;&gt;&lt;font style=&quot;font-size:11.29px;font-family:Calibri;color:#0d5273;direction:ltr;letter-spacing:0px;line-height:120%;opacity:1&quot;&gt;&amp;lt;&amp;lt;extend&amp;gt;&amp;gt;&lt;br/&gt;&lt;/font&gt;&lt;/p&gt;&lt;/div&gt;" tags="Connector" id="jTA-YyCPrmTPrOojGD1L-127">
          <mxCell style="vsdxID=500;edgeStyle=none;dashed=1;startArrow=none;endArrow=open;startSize=5;endSize=5;strokeColor=#178dc6;spacingTop=0;spacingBottom=0;spacingLeft=0;spacingRight=0;verticalAlign=middle;html=1;labelBackgroundColor=#ffffff;rounded=0;align=center;entryX=0.003;entryY=0.45;entryDx=0;entryDy=0;entryPerimeter=0;" edge="1" parent="1" target="jTA-YyCPrmTPrOojGD1L-126">
            <mxGeometry relative="1" as="geometry">
              <mxPoint x="-1" as="offset" />
              <Array as="points" />
              <mxPoint x="2530" y="1220" as="sourcePoint" />
              <mxPoint x="2861" y="1212" as="targetPoint" />
            </mxGeometry>
          </mxCell>
        </UserObject>
        <UserObject label="&lt;div style=&quot;font-size: 1px&quot;&gt;&lt;p style=&quot;text-align:center;margin-left:0;margin-right:0;margin-top:0px;margin-bottom:0px;text-indent:0;vertical-align:middle;direction:ltr;&quot;&gt;&lt;font style=&quot;font-size:16.93px;font-family:Calibri;color:#ffffff;direction:ltr;letter-spacing:0px;line-height:120%;opacity:1&quot;&gt;Отчет за продажби по служител&lt;br&gt;&lt;/font&gt;&lt;/p&gt;&lt;/div&gt;" tags="Background" id="jTA-YyCPrmTPrOojGD1L-128">
          <mxCell style="verticalAlign=middle;align=center;overflow=width;vsdxID=494;fillColor=#000000;gradientColor=none;shape=stencil(vVHLDsIgEPwajiQI6RfU+h8bu22JCGRB2/69kG1iazx58DazM/vIjjBtmiCi0CplCjecbZ8nYc5Ca+snJJsLEqYTph0C4Ujh4XvmEaqzont41gkL96naodXKrGF6YSfQtUi0OXXDVlqPfJNP6usotUhYbJIUMmQb/GGrAxpRljVycDBuc1hKM2LclX8/7H9nFfB+82Cd45T2+mcspcSRmu4F);strokeColor=#ffffff;points=[];labelBackgroundColor=none;rounded=0;html=1;whiteSpace=wrap;" vertex="1" parent="1">
            <mxGeometry x="2790" y="1477.5" width="341" height="84" as="geometry" />
          </mxCell>
        </UserObject>
        <UserObject label="&lt;div style=&quot;font-size: 1px&quot;&gt;&lt;p style=&quot;text-align:center;margin-left:0;margin-right:0;margin-top:0px;margin-bottom:0px;text-indent:0;vertical-align:middle;direction:ltr;&quot;&gt;&lt;font style=&quot;font-size:11.29px;font-family:Calibri;color:#0d5273;direction:ltr;letter-spacing:0px;line-height:120%;opacity:1&quot;&gt;&amp;lt;&amp;lt;extend&amp;gt;&amp;gt;&lt;br/&gt;&lt;/font&gt;&lt;/p&gt;&lt;/div&gt;" tags="Connector" id="jTA-YyCPrmTPrOojGD1L-129">
          <mxCell style="vsdxID=500;edgeStyle=none;dashed=1;startArrow=none;endArrow=open;startSize=5;endSize=5;strokeColor=#178dc6;spacingTop=0;spacingBottom=0;spacingLeft=0;spacingRight=0;verticalAlign=middle;html=1;labelBackgroundColor=#ffffff;rounded=0;align=center;entryX=0.003;entryY=0.45;entryDx=0;entryDy=0;entryPerimeter=0;exitX=1.015;exitY=0.596;exitDx=0;exitDy=0;exitPerimeter=0;" edge="1" target="jTA-YyCPrmTPrOojGD1L-128" parent="1" source="13">
            <mxGeometry relative="1" as="geometry">
              <mxPoint x="-1" as="offset" />
              <Array as="points" />
              <mxPoint x="2530" y="1523.5" as="sourcePoint" />
              <mxPoint x="2861" y="1515.5" as="targetPoint" />
            </mxGeometry>
          </mxCell>
        </UserObject>
        <UserObject label="&lt;div style=&quot;font-size: 1px&quot;&gt;&lt;p style=&quot;text-align:center;margin-left:0;margin-right:0;margin-top:0px;margin-bottom:0px;text-indent:0;vertical-align:middle;direction:ltr;&quot;&gt;&lt;font style=&quot;font-size:16.93px;font-family:Calibri;color:#ffffff;direction:ltr;letter-spacing:0px;line-height:120%;opacity:1&quot;&gt;История на покупките на клиента&lt;br&gt;&lt;/font&gt;&lt;/p&gt;&lt;/div&gt;" tags="Background" id="jTA-YyCPrmTPrOojGD1L-130">
          <mxCell style="verticalAlign=middle;align=center;overflow=width;vsdxID=494;fillColor=#000000;gradientColor=none;shape=stencil(vVHLDsIgEPwajiQI6RfU+h8bu22JCGRB2/69kG1iazx58DazM/vIjjBtmiCi0CplCjecbZ8nYc5Ca+snJJsLEqYTph0C4Ujh4XvmEaqzont41gkL96naodXKrGF6YSfQtUi0OXXDVlqPfJNP6usotUhYbJIUMmQb/GGrAxpRljVycDBuc1hKM2LclX8/7H9nFfB+82Cd45T2+mcspcSRmu4F);strokeColor=#ffffff;points=[];labelBackgroundColor=none;rounded=0;html=1;whiteSpace=wrap;" vertex="1" parent="1">
            <mxGeometry x="2790" y="1330.5" width="341" height="84" as="geometry" />
          </mxCell>
        </UserObject>
        <UserObject label="&lt;div style=&quot;font-size: 1px&quot;&gt;&lt;p style=&quot;text-align:center;margin-left:0;margin-right:0;margin-top:0px;margin-bottom:0px;text-indent:0;vertical-align:middle;direction:ltr;&quot;&gt;&lt;font style=&quot;font-size:11.29px;font-family:Calibri;color:#0d5273;direction:ltr;letter-spacing:0px;line-height:120%;opacity:1&quot;&gt;&amp;lt;&amp;lt;extend&amp;gt;&amp;gt;&lt;br/&gt;&lt;/font&gt;&lt;/p&gt;&lt;/div&gt;" tags="Connector" id="jTA-YyCPrmTPrOojGD1L-131">
          <mxCell style="vsdxID=500;edgeStyle=none;dashed=1;startArrow=none;endArrow=open;startSize=5;endSize=5;strokeColor=#178dc6;spacingTop=0;spacingBottom=0;spacingLeft=0;spacingRight=0;verticalAlign=middle;html=1;labelBackgroundColor=#ffffff;rounded=0;align=center;exitX=1.006;exitY=0.532;exitDx=0;exitDy=0;exitPerimeter=0;entryX=0;entryY=0.5;entryDx=0;entryDy=0;entryPerimeter=0;" edge="1" target="jTA-YyCPrmTPrOojGD1L-130" parent="1" source="13">
            <mxGeometry relative="1" as="geometry">
              <mxPoint x="-1" as="offset" />
              <Array as="points" />
              <mxPoint x="2530" y="1523.5" as="sourcePoint" />
            </mxGeometry>
          </mxCell>
        </UserObject>
        <UserObject label="&lt;div style=&quot;font-size: 1px&quot;&gt;&lt;p style=&quot;text-align:center;margin-left:0;margin-right:0;margin-top:0px;margin-bottom:0px;text-indent:0;vertical-align:middle;direction:ltr;&quot;&gt;&lt;font style=&quot;font-size:16.93px;font-family:Calibri;color:#ffffff;direction:ltr;letter-spacing:0px;line-height:120%;opacity:1&quot;&gt;Създаване на продажба&lt;/font&gt;&lt;font style=&quot;font-size:16.93px;font-family:Themed;color:#ffffff;direction:ltr;letter-spacing:0px;line-height:120%;opacity:1&quot;&gt;&lt;br&gt;&lt;/font&gt;&lt;/p&gt;&lt;/div&gt;" tags="Background" id="jTA-YyCPrmTPrOojGD1L-132">
          <mxCell style="verticalAlign=middle;align=center;overflow=width;vsdxID=129;fillColor=#000000;gradientColor=none;shape=stencil(vVHLDsIgEPwajiQI6RfU+h8bu22JCGRB2/69kG1iazx58DazM/vIjjBtmiCi0CplCjecbZ8nYc5Ca+snJJsLEqYTph0C4Ujh4XvmEaqzont41gkL96naodXKrGF6YSfQtUi0OXXDVlqPfJNP6usotUhYbJIUMmQb/GGrAxpRljVycDBuc1hKM2LclX8/7H9nFfB+82Cd45T2+mcspcSRmu4F);strokeColor=#ffffff;points=[];labelBackgroundColor=none;rounded=0;html=1;whiteSpace=wrap;" vertex="1" parent="1">
            <mxGeometry x="960" y="1830" width="178" height="48" as="geometry" />
          </mxCell>
        </UserObject>
        <UserObject label="&lt;div style=&quot;font-size: 1px&quot;&gt;&lt;p style=&quot;text-align:center;margin-left:0;margin-right:0;margin-top:0px;margin-bottom:0px;text-indent:0;vertical-align:middle;direction:ltr;&quot;&gt;&lt;font style=&quot;font-size:16.93px;font-family:Calibri;color:#ffffff;direction:ltr;letter-spacing:0px;line-height:120%;opacity:1&quot;&gt;Създаване на служител&lt;/font&gt;&lt;font style=&quot;font-size:16.93px;font-family:Themed;color:#ffffff;direction:ltr;letter-spacing:0px;line-height:120%;opacity:1&quot;&gt;&lt;br&gt;&lt;/font&gt;&lt;/p&gt;&lt;/div&gt;" tags="Background" id="jTA-YyCPrmTPrOojGD1L-133">
          <mxCell style="verticalAlign=middle;align=center;overflow=width;vsdxID=129;fillColor=#000000;gradientColor=none;shape=stencil(vVHLDsIgEPwajiQI6RfU+h8bu22JCGRB2/69kG1iazx58DazM/vIjjBtmiCi0CplCjecbZ8nYc5Ca+snJJsLEqYTph0C4Ujh4XvmEaqzont41gkL96naodXKrGF6YSfQtUi0OXXDVlqPfJNP6usotUhYbJIUMmQb/GGrAxpRljVycDBuc1hKM2LclX8/7H9nFfB+82Cd45T2+mcspcSRmu4F);strokeColor=#ffffff;points=[];labelBackgroundColor=none;rounded=0;html=1;whiteSpace=wrap;" vertex="1" parent="1">
            <mxGeometry x="1188" y="1830" width="178" height="48" as="geometry" />
          </mxCell>
        </UserObject>
        <UserObject label="&lt;div style=&quot;font-size: 1px&quot;&gt;&lt;p style=&quot;text-align:center;margin-left:0;margin-right:0;margin-top:0px;margin-bottom:0px;text-indent:0;vertical-align:middle;direction:ltr;&quot;&gt;&lt;font style=&quot;font-size:16.93px;font-family:Calibri;color:#ffffff;direction:ltr;letter-spacing:0px;line-height:120%;opacity:1&quot;&gt;Създаване на длъжност&lt;/font&gt;&lt;font style=&quot;font-size:16.93px;font-family:Themed;color:#ffffff;direction:ltr;letter-spacing:0px;line-height:120%;opacity:1&quot;&gt;&lt;br&gt;&lt;/font&gt;&lt;/p&gt;&lt;/div&gt;" tags="Background" id="jTA-YyCPrmTPrOojGD1L-134">
          <mxCell style="verticalAlign=middle;align=center;overflow=width;vsdxID=129;fillColor=#000000;gradientColor=none;shape=stencil(vVHLDsIgEPwajiQI6RfU+h8bu22JCGRB2/69kG1iazx58DazM/vIjjBtmiCi0CplCjecbZ8nYc5Ca+snJJsLEqYTph0C4Ujh4XvmEaqzont41gkL96naodXKrGF6YSfQtUi0OXXDVlqPfJNP6usotUhYbJIUMmQb/GGrAxpRljVycDBuc1hKM2LclX8/7H9nFfB+82Cd45T2+mcspcSRmu4F);strokeColor=#ffffff;points=[];labelBackgroundColor=none;rounded=0;html=1;whiteSpace=wrap;" vertex="1" parent="1">
            <mxGeometry x="1396" y="1830" width="178" height="48" as="geometry" />
          </mxCell>
        </UserObject>
        <UserObject label="&lt;div style=&quot;font-size: 1px&quot;&gt;&lt;p style=&quot;text-align:center;margin-left:0;margin-right:0;margin-top:0px;margin-bottom:0px;text-indent:0;vertical-align:middle;direction:ltr;&quot;&gt;&lt;font style=&quot;font-size:16.93px;font-family:Calibri;color:#ffffff;direction:ltr;letter-spacing:0px;line-height:120%;opacity:1&quot;&gt;Създаване на компания&lt;/font&gt;&lt;font style=&quot;font-size:16.93px;font-family:Themed;color:#ffffff;direction:ltr;letter-spacing:0px;line-height:120%;opacity:1&quot;&gt;&lt;br&gt;&lt;/font&gt;&lt;/p&gt;&lt;/div&gt;" tags="Background" id="jTA-YyCPrmTPrOojGD1L-135">
          <mxCell style="verticalAlign=middle;align=center;overflow=width;vsdxID=129;fillColor=#000000;gradientColor=none;shape=stencil(vVHLDsIgEPwajiQI6RfU+h8bu22JCGRB2/69kG1iazx58DazM/vIjjBtmiCi0CplCjecbZ8nYc5Ca+snJJsLEqYTph0C4Ujh4XvmEaqzont41gkL96naodXKrGF6YSfQtUi0OXXDVlqPfJNP6usotUhYbJIUMmQb/GGrAxpRljVycDBuc1hKM2LclX8/7H9nFfB+82Cd45T2+mcspcSRmu4F);strokeColor=#ffffff;points=[];labelBackgroundColor=none;rounded=0;html=1;whiteSpace=wrap;" vertex="1" parent="1">
            <mxGeometry x="1605.5" y="1830" width="178" height="48" as="geometry" />
          </mxCell>
        </UserObject>
        <UserObject label="&lt;div style=&quot;font-size: 1px&quot;&gt;&lt;font style=&quot;font-size:16.93px;font-family:Calibri;color:#ffffff;direction:ltr;letter-spacing:0px;line-height:120%;opacity:1&quot;&gt;Създаване на материал&lt;br&gt;&lt;/font&gt;&lt;/div&gt;" tags="Background" id="jTA-YyCPrmTPrOojGD1L-136">
          <mxCell style="verticalAlign=middle;align=center;overflow=width;vsdxID=135;fillColor=#000000;gradientColor=none;shape=stencil(vVHLDsIgEPwajiQI6RfU+h8bu22JCGRB2/69kG1iazx58DazM/vIjjBtmiCi0CplCjecbZ8nYc5Ca+snJJsLEqYTph0C4Ujh4XvmEaqzont41gkL96naodXKrGF6YSfQtUi0OXXDVlqPfJNP6usotUhYbJIUMmQb/GGrAxpRljVycDBuc1hKM2LclX8/7H9nFfB+82Cd45T2+mcspcSRmu4F);strokeColor=#ffffff;points=[];labelBackgroundColor=none;rounded=0;html=1;whiteSpace=wrap;" vertex="1" parent="1">
            <mxGeometry x="1800" y="1830" width="222" height="48" as="geometry" />
          </mxCell>
        </UserObject>
        <UserObject label="&lt;div style=&quot;font-size: 1px&quot;&gt;&lt;font style=&quot;font-size:16.93px;font-family:Calibri;color:#ffffff;direction:ltr;letter-spacing:0px;line-height:120%;opacity:1&quot;&gt;Създаване на вид материал&lt;br&gt;&lt;/font&gt;&lt;/div&gt;" tags="Background" id="jTA-YyCPrmTPrOojGD1L-137">
          <mxCell style="verticalAlign=middle;align=center;overflow=width;vsdxID=141;fillColor=#000000;gradientColor=none;shape=stencil(vVHLDsIgEPwajiQI6RfU+h8bu22JCGRB2/69kG1iazx58DazM/vIjjBtmiCi0CplCjecbZ8nYc5Ca+snJJsLEqYTph0C4Ujh4XvmEaqzont41gkL96naodXKrGF6YSfQtUi0OXXDVlqPfJNP6usotUhYbJIUMmQb/GGrAxpRljVycDBuc1hKM2LclX8/7H9nFfB+82Cd45T2+mcspcSRmu4F);strokeColor=#ffffff;points=[];labelBackgroundColor=none;rounded=0;html=1;whiteSpace=wrap;" vertex="1" parent="1">
            <mxGeometry x="2026.5" y="1830" width="160" height="48" as="geometry" />
          </mxCell>
        </UserObject>
        <UserObject label="&lt;div style=&quot;font-size: 1px&quot;&gt;&lt;font style=&quot;font-size:16.93px;font-family:Calibri;color:#ffffff;direction:ltr;letter-spacing:0px;line-height:120%;opacity:1&quot;&gt;Създаване на мол&lt;br&gt;&lt;/font&gt;&lt;/div&gt;" tags="Background" id="jTA-YyCPrmTPrOojGD1L-138">
          <mxCell style="verticalAlign=middle;align=center;overflow=width;vsdxID=141;fillColor=#000000;gradientColor=none;shape=stencil(vVHLDsIgEPwajiQI6RfU+h8bu22JCGRB2/69kG1iazx58DazM/vIjjBtmiCi0CplCjecbZ8nYc5Ca+snJJsLEqYTph0C4Ujh4XvmEaqzont41gkL96naodXKrGF6YSfQtUi0OXXDVlqPfJNP6usotUhYbJIUMmQb/GGrAxpRljVycDBuc1hKM2LclX8/7H9nFfB+82Cd45T2+mcspcSRmu4F);strokeColor=#ffffff;points=[];labelBackgroundColor=none;rounded=0;html=1;whiteSpace=wrap;" vertex="1" parent="1">
            <mxGeometry x="2210" y="1830" width="160" height="48" as="geometry" />
          </mxCell>
        </UserObject>
        <UserObject label="&lt;div style=&quot;font-size: 1px&quot;&gt;&lt;p style=&quot;text-align:center;margin-left:0;margin-right:0;margin-top:0px;margin-bottom:0px;text-indent:0;vertical-align:middle;direction:ltr;&quot;&gt;&lt;font style=&quot;font-size:16.93px;font-family:Calibri;color:#ffffff;direction:ltr;letter-spacing:0px;line-height:120%;opacity:1&quot;&gt;Създаване на клиент&lt;/font&gt;&lt;font style=&quot;font-size:16.93px;font-family:Themed;color:#ffffff;direction:ltr;letter-spacing:0px;line-height:120%;opacity:1&quot;&gt;&lt;br&gt;&lt;/font&gt;&lt;/p&gt;&lt;/div&gt;" tags="Background" id="jTA-YyCPrmTPrOojGD1L-139">
          <mxCell style="verticalAlign=middle;align=center;overflow=width;vsdxID=129;fillColor=#000000;gradientColor=none;shape=stencil(vVHLDsIgEPwajiQI6RfU+h8bu22JCGRB2/69kG1iazx58DazM/vIjjBtmiCi0CplCjecbZ8nYc5Ca+snJJsLEqYTph0C4Ujh4XvmEaqzont41gkL96naodXKrGF6YSfQtUi0OXXDVlqPfJNP6usotUhYbJIUMmQb/GGrAxpRljVycDBuc1hKM2LclX8/7H9nFfB+82Cd45T2+mcspcSRmu4F);strokeColor=#ffffff;points=[];labelBackgroundColor=none;rounded=0;html=1;whiteSpace=wrap;" vertex="1" parent="1">
            <mxGeometry x="2390" y="1830" width="178" height="48" as="geometry" />
          </mxCell>
        </UserObject>
        <UserObject label="&lt;div style=&quot;font-size: 1px&quot;&gt;&lt;p style=&quot;text-align:center;margin-left:0;margin-right:0;margin-top:0px;margin-bottom:0px;text-indent:0;vertical-align:middle;direction:ltr;&quot;&gt;&lt;font style=&quot;font-size:11.29px;font-family:Calibri;color:#0d5273;direction:ltr;letter-spacing:0px;line-height:120%;opacity:1&quot;&gt;&amp;lt;&amp;lt;extend&amp;gt;&amp;gt;&lt;br/&gt;&lt;/font&gt;&lt;/p&gt;&lt;/div&gt;" tags="Connector" id="jTA-YyCPrmTPrOojGD1L-140">
          <mxCell style="vsdxID=442;edgeStyle=none;dashed=1;startArrow=none;endArrow=open;startSize=5;endSize=5;strokeColor=#178dc6;spacingTop=0;spacingBottom=0;spacingLeft=0;spacingRight=0;verticalAlign=middle;html=1;labelBackgroundColor=#ffffff;rounded=0;align=center;entryX=0.507;entryY=0.012;entryDx=0;entryDy=0;entryPerimeter=0;exitX=0.496;exitY=1.077;exitDx=0;exitDy=0;exitPerimeter=0;" edge="1" parent="1" source="38" target="jTA-YyCPrmTPrOojGD1L-133">
            <mxGeometry relative="1" as="geometry">
              <mxPoint x="10" y="43" as="offset" />
              <Array as="points" />
              <mxPoint x="1891" y="1488" as="sourcePoint" />
              <mxPoint x="1477" y="1840" as="targetPoint" />
            </mxGeometry>
          </mxCell>
        </UserObject>
        <UserObject label="&lt;div style=&quot;font-size: 1px&quot;&gt;&lt;p style=&quot;text-align:center;margin-left:0;margin-right:0;margin-top:0px;margin-bottom:0px;text-indent:0;vertical-align:middle;direction:ltr;&quot;&gt;&lt;font style=&quot;font-size:11.29px;font-family:Calibri;color:#0d5273;direction:ltr;letter-spacing:0px;line-height:120%;opacity:1&quot;&gt;&amp;lt;&amp;lt;extend&amp;gt;&amp;gt;&lt;br/&gt;&lt;/font&gt;&lt;/p&gt;&lt;/div&gt;" tags="Connector" id="jTA-YyCPrmTPrOojGD1L-141">
          <mxCell style="vsdxID=442;edgeStyle=none;dashed=1;startArrow=none;endArrow=open;startSize=5;endSize=5;strokeColor=#178dc6;spacingTop=0;spacingBottom=0;spacingLeft=0;spacingRight=0;verticalAlign=middle;html=1;labelBackgroundColor=#ffffff;rounded=0;align=center;entryX=0.542;entryY=0.012;entryDx=0;entryDy=0;entryPerimeter=0;exitX=0.488;exitY=1.003;exitDx=0;exitDy=0;exitPerimeter=0;" edge="1" parent="1" source="38" target="jTA-YyCPrmTPrOojGD1L-134">
            <mxGeometry relative="1" as="geometry">
              <mxPoint x="10" y="43" as="offset" />
              <Array as="points" />
              <mxPoint x="1901" y="1498" as="sourcePoint" />
              <mxPoint x="1487" y="1850" as="targetPoint" />
            </mxGeometry>
          </mxCell>
        </UserObject>
        <UserObject label="&lt;div style=&quot;font-size: 1px&quot;&gt;&lt;p style=&quot;text-align:center;margin-left:0;margin-right:0;margin-top:0px;margin-bottom:0px;text-indent:0;vertical-align:middle;direction:ltr;&quot;&gt;&lt;font style=&quot;font-size:11.29px;font-family:Calibri;color:#0d5273;direction:ltr;letter-spacing:0px;line-height:120%;opacity:1&quot;&gt;&amp;lt;&amp;lt;extend&amp;gt;&amp;gt;&lt;br/&gt;&lt;/font&gt;&lt;/p&gt;&lt;/div&gt;" tags="Connector" id="jTA-YyCPrmTPrOojGD1L-142">
          <mxCell style="vsdxID=442;edgeStyle=none;dashed=1;startArrow=none;endArrow=open;startSize=5;endSize=5;strokeColor=#178dc6;spacingTop=0;spacingBottom=0;spacingLeft=0;spacingRight=0;verticalAlign=middle;html=1;labelBackgroundColor=#ffffff;rounded=0;align=center;entryX=0.488;entryY=-0.061;entryDx=0;entryDy=0;entryPerimeter=0;" edge="1" parent="1" target="jTA-YyCPrmTPrOojGD1L-135">
            <mxGeometry relative="1" as="geometry">
              <mxPoint x="10" y="43" as="offset" />
              <Array as="points" />
              <mxPoint x="1910" y="1480" as="sourcePoint" />
              <mxPoint x="1497" y="1860" as="targetPoint" />
            </mxGeometry>
          </mxCell>
        </UserObject>
        <UserObject label="&lt;div style=&quot;font-size: 1px&quot;&gt;&lt;p style=&quot;text-align:center;margin-left:0;margin-right:0;margin-top:0px;margin-bottom:0px;text-indent:0;vertical-align:middle;direction:ltr;&quot;&gt;&lt;font style=&quot;font-size:11.29px;font-family:Calibri;color:#0d5273;direction:ltr;letter-spacing:0px;line-height:120%;opacity:1&quot;&gt;&amp;lt;&amp;lt;extend&amp;gt;&amp;gt;&lt;br/&gt;&lt;/font&gt;&lt;/p&gt;&lt;/div&gt;" tags="Connector" id="jTA-YyCPrmTPrOojGD1L-143">
          <mxCell style="vsdxID=442;edgeStyle=none;dashed=1;startArrow=none;endArrow=open;startSize=5;endSize=5;strokeColor=#178dc6;spacingTop=0;spacingBottom=0;spacingLeft=0;spacingRight=0;verticalAlign=middle;html=1;labelBackgroundColor=#ffffff;rounded=0;align=center;entryX=0.502;entryY=0.014;entryDx=0;entryDy=0;entryPerimeter=0;" edge="1" parent="1" target="jTA-YyCPrmTPrOojGD1L-136">
            <mxGeometry relative="1" as="geometry">
              <mxPoint x="10" y="43" as="offset" />
              <Array as="points" />
              <mxPoint x="1910" y="1480" as="sourcePoint" />
              <mxPoint x="1507" y="1870" as="targetPoint" />
            </mxGeometry>
          </mxCell>
        </UserObject>
        <UserObject label="&lt;div style=&quot;font-size: 1px&quot;&gt;&lt;p style=&quot;text-align:center;margin-left:0;margin-right:0;margin-top:0px;margin-bottom:0px;text-indent:0;vertical-align:middle;direction:ltr;&quot;&gt;&lt;font style=&quot;font-size:11.29px;font-family:Calibri;color:#0d5273;direction:ltr;letter-spacing:0px;line-height:120%;opacity:1&quot;&gt;&amp;lt;&amp;lt;extend&amp;gt;&amp;gt;&lt;br/&gt;&lt;/font&gt;&lt;/p&gt;&lt;/div&gt;" tags="Connector" id="jTA-YyCPrmTPrOojGD1L-144">
          <mxCell style="vsdxID=442;edgeStyle=none;dashed=1;startArrow=none;endArrow=open;startSize=5;endSize=5;strokeColor=#178dc6;spacingTop=0;spacingBottom=0;spacingLeft=0;spacingRight=0;verticalAlign=middle;html=1;labelBackgroundColor=#ffffff;rounded=0;align=center;entryX=0.447;entryY=-0.042;entryDx=0;entryDy=0;entryPerimeter=0;" edge="1" parent="1" target="jTA-YyCPrmTPrOojGD1L-137">
            <mxGeometry relative="1" as="geometry">
              <mxPoint x="10" y="43" as="offset" />
              <Array as="points" />
              <mxPoint x="1910" y="1480" as="sourcePoint" />
              <mxPoint x="1517" y="1880" as="targetPoint" />
            </mxGeometry>
          </mxCell>
        </UserObject>
        <UserObject label="&lt;div style=&quot;font-size: 1px&quot;&gt;&lt;p style=&quot;text-align:center;margin-left:0;margin-right:0;margin-top:0px;margin-bottom:0px;text-indent:0;vertical-align:middle;direction:ltr;&quot;&gt;&lt;font style=&quot;font-size:11.29px;font-family:Calibri;color:#0d5273;direction:ltr;letter-spacing:0px;line-height:120%;opacity:1&quot;&gt;&amp;lt;&amp;lt;extend&amp;gt;&amp;gt;&lt;br/&gt;&lt;/font&gt;&lt;/p&gt;&lt;/div&gt;" tags="Connector" id="jTA-YyCPrmTPrOojGD1L-145">
          <mxCell style="vsdxID=442;edgeStyle=none;dashed=1;startArrow=none;endArrow=open;startSize=5;endSize=5;strokeColor=#178dc6;spacingTop=0;spacingBottom=0;spacingLeft=0;spacingRight=0;verticalAlign=middle;html=1;labelBackgroundColor=#ffffff;rounded=0;align=center;entryX=0.481;entryY=0.042;entryDx=0;entryDy=0;entryPerimeter=0;exitX=0.456;exitY=0.969;exitDx=0;exitDy=0;exitPerimeter=0;" edge="1" parent="1" source="38" target="jTA-YyCPrmTPrOojGD1L-138">
            <mxGeometry relative="1" as="geometry">
              <mxPoint x="10" y="43" as="offset" />
              <Array as="points" />
              <mxPoint x="1941" y="1538" as="sourcePoint" />
              <mxPoint x="1527" y="1890" as="targetPoint" />
            </mxGeometry>
          </mxCell>
        </UserObject>
        <UserObject label="&lt;div style=&quot;font-size: 1px&quot;&gt;&lt;p style=&quot;text-align:center;margin-left:0;margin-right:0;margin-top:0px;margin-bottom:0px;text-indent:0;vertical-align:middle;direction:ltr;&quot;&gt;&lt;font style=&quot;font-size:11.29px;font-family:Calibri;color:#0d5273;direction:ltr;letter-spacing:0px;line-height:120%;opacity:1&quot;&gt;&amp;lt;&amp;lt;extend&amp;gt;&amp;gt;&lt;br/&gt;&lt;/font&gt;&lt;/p&gt;&lt;/div&gt;" tags="Connector" id="jTA-YyCPrmTPrOojGD1L-146">
          <mxCell style="vsdxID=442;edgeStyle=none;dashed=1;startArrow=none;endArrow=open;startSize=5;endSize=5;strokeColor=#178dc6;spacingTop=0;spacingBottom=0;spacingLeft=0;spacingRight=0;verticalAlign=middle;html=1;labelBackgroundColor=#ffffff;rounded=0;align=center;entryX=0.427;entryY=0.021;entryDx=0;entryDy=0;entryPerimeter=0;" edge="1" parent="1" target="jTA-YyCPrmTPrOojGD1L-139">
            <mxGeometry relative="1" as="geometry">
              <mxPoint x="10" y="43" as="offset" />
              <Array as="points" />
              <mxPoint x="1910" y="1480" as="sourcePoint" />
              <mxPoint x="1537" y="1900" as="targetPoint" />
            </mxGeometry>
          </mxCell>
        </UserObject>
        <UserObject label="&lt;div style=&quot;font-size: 1px&quot;&gt;&lt;p style=&quot;text-align:center;margin-left:0;margin-right:0;margin-top:0px;margin-bottom:0px;text-indent:0;vertical-align:middle;direction:ltr;&quot;&gt;&lt;font style=&quot;font-size:11.29px;font-family:Calibri;color:#0d5273;direction:ltr;letter-spacing:0px;line-height:120%;opacity:1&quot;&gt;&amp;lt;&amp;lt;extend&amp;gt;&amp;gt;&lt;br/&gt;&lt;/font&gt;&lt;/p&gt;&lt;/div&gt;" tags="Connector" id="jTA-YyCPrmTPrOojGD1L-147">
          <mxCell style="vsdxID=454;edgeStyle=none;dashed=1;startArrow=none;endArrow=open;startSize=5;endSize=5;strokeColor=#178dc6;spacingTop=0;spacingBottom=0;spacingLeft=0;spacingRight=0;verticalAlign=middle;html=1;labelBackgroundColor=#ffffff;rounded=0;align=center;exitX=0.485;exitY=1.027;exitDx=0;exitDy=0;exitPerimeter=0;entryX=0.456;entryY=0.04;entryDx=0;entryDy=0;entryPerimeter=0;" edge="1" parent="1" source="31" target="34">
            <mxGeometry relative="1" as="geometry">
              <mxPoint y="139" as="offset" />
              <Array as="points" />
              <mxPoint x="1495" y="2452" as="sourcePoint" />
              <mxPoint x="1552" y="2593" as="targetPoint" />
            </mxGeometry>
          </mxCell>
        </UserObject>
        <UserObject label="&lt;div style=&quot;font-size: 1px&quot;&gt;&lt;font style=&quot;font-size:16.93px;font-family:Calibri;color:#ffffff;direction:ltr;letter-spacing:0px;line-height:120%;opacity:1&quot;&gt;Повече опции&lt;br/&gt;&lt;/font&gt;&lt;/div&gt;" tags="Background" id="jTA-YyCPrmTPrOojGD1L-148">
          <mxCell style="verticalAlign=middle;align=center;overflow=width;vsdxID=149;fillColor=#000000;gradientColor=none;shape=stencil(vVHLDsIgEPwajiQI6RfU+h8bu22JCGRB2/69kG1iazx58DazM/vIjjBtmiCi0CplCjecbZ8nYc5Ca+snJJsLEqYTph0C4Ujh4XvmEaqzont41gkL96naodXKrGF6YSfQtUi0OXXDVlqPfJNP6usotUhYbJIUMmQb/GGrAxpRljVycDBuc1hKM2LclX8/7H9nFfB+82Cd45T2+mcspcSRmu4F);strokeColor=#ffffff;points=[];labelBackgroundColor=none;rounded=0;html=1;whiteSpace=wrap;" vertex="1" parent="1">
            <mxGeometry x="1640" y="2200" width="160" height="48" as="geometry" />
          </mxCell>
        </UserObject>
        <UserObject label="&lt;div style=&quot;font-size: 1px&quot;&gt;&lt;p style=&quot;text-align:center;margin-left:0;margin-right:0;margin-top:0px;margin-bottom:0px;text-indent:0;vertical-align:middle;direction:ltr;&quot;&gt;&lt;font style=&quot;font-size:11.29px;font-family:Calibri;color:#0d5273;direction:ltr;letter-spacing:0px;line-height:120%;opacity:1&quot;&gt;&amp;lt;&amp;lt;extend&amp;gt;&amp;gt;&lt;br/&gt;&lt;/font&gt;&lt;/p&gt;&lt;/div&gt;" tags="Connector" id="jTA-YyCPrmTPrOojGD1L-149">
          <mxCell style="vsdxID=442;edgeStyle=none;dashed=1;startArrow=none;endArrow=open;startSize=5;endSize=5;strokeColor=#178dc6;spacingTop=0;spacingBottom=0;spacingLeft=0;spacingRight=0;verticalAlign=middle;html=1;labelBackgroundColor=#ffffff;rounded=0;align=center;entryX=0.301;entryY=0.038;entryDx=0;entryDy=0;entryPerimeter=0;exitX=0.515;exitY=1.083;exitDx=0;exitDy=0;exitPerimeter=0;" edge="1" parent="1" source="jTA-YyCPrmTPrOojGD1L-132" target="jTA-YyCPrmTPrOojGD1L-148">
            <mxGeometry relative="1" as="geometry">
              <mxPoint x="10" y="43" as="offset" />
              <Array as="points" />
              <mxPoint x="1378" y="2094" as="sourcePoint" />
              <mxPoint x="1160" y="2441" as="targetPoint" />
            </mxGeometry>
          </mxCell>
        </UserObject>
        <UserObject label="&lt;div style=&quot;font-size: 1px&quot;&gt;&lt;p style=&quot;text-align:center;margin-left:0;margin-right:0;margin-top:0px;margin-bottom:0px;text-indent:0;vertical-align:middle;direction:ltr;&quot;&gt;&lt;font style=&quot;font-size:11.29px;font-family:Calibri;color:#0d5273;direction:ltr;letter-spacing:0px;line-height:120%;opacity:1&quot;&gt;&amp;lt;&amp;lt;extend&amp;gt;&amp;gt;&lt;br/&gt;&lt;/font&gt;&lt;/p&gt;&lt;/div&gt;" tags="Connector" id="jTA-YyCPrmTPrOojGD1L-150">
          <mxCell style="vsdxID=442;edgeStyle=none;dashed=1;startArrow=none;endArrow=open;startSize=5;endSize=5;strokeColor=#178dc6;spacingTop=0;spacingBottom=0;spacingLeft=0;spacingRight=0;verticalAlign=middle;html=1;labelBackgroundColor=#ffffff;rounded=0;align=center;exitX=0.464;exitY=1.017;exitDx=0;exitDy=0;exitPerimeter=0;" edge="1" parent="1" source="jTA-YyCPrmTPrOojGD1L-133" target="jTA-YyCPrmTPrOojGD1L-148">
            <mxGeometry relative="1" as="geometry">
              <mxPoint x="10" y="43" as="offset" />
              <Array as="points" />
              <mxPoint x="1506" y="2030" as="sourcePoint" />
              <mxPoint x="1288" y="2377" as="targetPoint" />
            </mxGeometry>
          </mxCell>
        </UserObject>
        <UserObject label="&lt;div style=&quot;font-size: 1px&quot;&gt;&lt;p style=&quot;text-align:center;margin-left:0;margin-right:0;margin-top:0px;margin-bottom:0px;text-indent:0;vertical-align:middle;direction:ltr;&quot;&gt;&lt;font style=&quot;font-size:11.29px;font-family:Calibri;color:#0d5273;direction:ltr;letter-spacing:0px;line-height:120%;opacity:1&quot;&gt;&amp;lt;&amp;lt;extend&amp;gt;&amp;gt;&lt;br/&gt;&lt;/font&gt;&lt;/p&gt;&lt;/div&gt;" tags="Connector" id="jTA-YyCPrmTPrOojGD1L-151">
          <mxCell style="vsdxID=442;edgeStyle=none;dashed=1;startArrow=none;endArrow=open;startSize=5;endSize=5;strokeColor=#178dc6;spacingTop=0;spacingBottom=0;spacingLeft=0;spacingRight=0;verticalAlign=middle;html=1;labelBackgroundColor=#ffffff;rounded=0;align=center;exitX=0.505;exitY=0.993;exitDx=0;exitDy=0;exitPerimeter=0;" edge="1" parent="1" source="jTA-YyCPrmTPrOojGD1L-134" target="jTA-YyCPrmTPrOojGD1L-148">
            <mxGeometry relative="1" as="geometry">
              <mxPoint x="10" y="43" as="offset" />
              <Array as="points" />
              <mxPoint x="1281" y="1889" as="sourcePoint" />
              <mxPoint x="1699" y="2210" as="targetPoint" />
            </mxGeometry>
          </mxCell>
        </UserObject>
        <UserObject label="&lt;div style=&quot;font-size: 1px&quot;&gt;&lt;p style=&quot;text-align:center;margin-left:0;margin-right:0;margin-top:0px;margin-bottom:0px;text-indent:0;vertical-align:middle;direction:ltr;&quot;&gt;&lt;font style=&quot;font-size:11.29px;font-family:Calibri;color:#0d5273;direction:ltr;letter-spacing:0px;line-height:120%;opacity:1&quot;&gt;&amp;lt;&amp;lt;extend&amp;gt;&amp;gt;&lt;br/&gt;&lt;/font&gt;&lt;/p&gt;&lt;/div&gt;" tags="Connector" id="jTA-YyCPrmTPrOojGD1L-153">
          <mxCell style="vsdxID=442;edgeStyle=none;dashed=1;startArrow=none;endArrow=open;startSize=5;endSize=5;strokeColor=#178dc6;spacingTop=0;spacingBottom=0;spacingLeft=0;spacingRight=0;verticalAlign=middle;html=1;labelBackgroundColor=#ffffff;rounded=0;align=center;exitX=0.465;exitY=1.091;exitDx=0;exitDy=0;exitPerimeter=0;" edge="1" parent="1" source="jTA-YyCPrmTPrOojGD1L-135" target="jTA-YyCPrmTPrOojGD1L-148">
            <mxGeometry relative="1" as="geometry">
              <mxPoint x="10" y="43" as="offset" />
              <Array as="points" />
              <mxPoint x="1291" y="1899" as="sourcePoint" />
              <mxPoint x="1709" y="2220" as="targetPoint" />
            </mxGeometry>
          </mxCell>
        </UserObject>
        <UserObject label="&lt;div style=&quot;font-size: 1px&quot;&gt;&lt;p style=&quot;text-align:center;margin-left:0;margin-right:0;margin-top:0px;margin-bottom:0px;text-indent:0;vertical-align:middle;direction:ltr;&quot;&gt;&lt;font style=&quot;font-size:11.29px;font-family:Calibri;color:#0d5273;direction:ltr;letter-spacing:0px;line-height:120%;opacity:1&quot;&gt;&amp;lt;&amp;lt;extend&amp;gt;&amp;gt;&lt;br/&gt;&lt;/font&gt;&lt;/p&gt;&lt;/div&gt;" tags="Connector" id="jTA-YyCPrmTPrOojGD1L-154">
          <mxCell style="vsdxID=442;edgeStyle=none;dashed=1;startArrow=none;endArrow=open;startSize=5;endSize=5;strokeColor=#178dc6;spacingTop=0;spacingBottom=0;spacingLeft=0;spacingRight=0;verticalAlign=middle;html=1;labelBackgroundColor=#ffffff;rounded=0;align=center;" edge="1" parent="1" source="jTA-YyCPrmTPrOojGD1L-136" target="jTA-YyCPrmTPrOojGD1L-148">
            <mxGeometry relative="1" as="geometry">
              <mxPoint x="10" y="43" as="offset" />
              <Array as="points" />
              <mxPoint x="1301" y="1909" as="sourcePoint" />
              <mxPoint x="1719" y="2230" as="targetPoint" />
            </mxGeometry>
          </mxCell>
        </UserObject>
        <UserObject label="&lt;div style=&quot;font-size: 1px&quot;&gt;&lt;p style=&quot;text-align:center;margin-left:0;margin-right:0;margin-top:0px;margin-bottom:0px;text-indent:0;vertical-align:middle;direction:ltr;&quot;&gt;&lt;font style=&quot;font-size:11.29px;font-family:Calibri;color:#0d5273;direction:ltr;letter-spacing:0px;line-height:120%;opacity:1&quot;&gt;&amp;lt;&amp;lt;extend&amp;gt;&amp;gt;&lt;br/&gt;&lt;/font&gt;&lt;/p&gt;&lt;/div&gt;" tags="Connector" id="jTA-YyCPrmTPrOojGD1L-155">
          <mxCell style="vsdxID=442;edgeStyle=none;dashed=1;startArrow=none;endArrow=open;startSize=5;endSize=5;strokeColor=#178dc6;spacingTop=0;spacingBottom=0;spacingLeft=0;spacingRight=0;verticalAlign=middle;html=1;labelBackgroundColor=#ffffff;rounded=0;align=center;" edge="1" parent="1" source="jTA-YyCPrmTPrOojGD1L-137" target="jTA-YyCPrmTPrOojGD1L-148">
            <mxGeometry relative="1" as="geometry">
              <mxPoint x="10" y="43" as="offset" />
              <Array as="points" />
              <mxPoint x="1311" y="1919" as="sourcePoint" />
              <mxPoint x="1729" y="2240" as="targetPoint" />
            </mxGeometry>
          </mxCell>
        </UserObject>
        <UserObject label="&lt;div style=&quot;font-size: 1px&quot;&gt;&lt;p style=&quot;text-align:center;margin-left:0;margin-right:0;margin-top:0px;margin-bottom:0px;text-indent:0;vertical-align:middle;direction:ltr;&quot;&gt;&lt;font style=&quot;font-size:11.29px;font-family:Calibri;color:#0d5273;direction:ltr;letter-spacing:0px;line-height:120%;opacity:1&quot;&gt;&amp;lt;&amp;lt;extend&amp;gt;&amp;gt;&lt;br/&gt;&lt;/font&gt;&lt;/p&gt;&lt;/div&gt;" tags="Connector" id="jTA-YyCPrmTPrOojGD1L-156">
          <mxCell style="vsdxID=442;edgeStyle=none;dashed=1;startArrow=none;endArrow=open;startSize=5;endSize=5;strokeColor=#178dc6;spacingTop=0;spacingBottom=0;spacingLeft=0;spacingRight=0;verticalAlign=middle;html=1;labelBackgroundColor=#ffffff;rounded=0;align=center;" edge="1" parent="1" source="jTA-YyCPrmTPrOojGD1L-138" target="jTA-YyCPrmTPrOojGD1L-148">
            <mxGeometry relative="1" as="geometry">
              <mxPoint x="10" y="43" as="offset" />
              <Array as="points" />
              <mxPoint x="1321" y="1929" as="sourcePoint" />
              <mxPoint x="1739" y="2250" as="targetPoint" />
            </mxGeometry>
          </mxCell>
        </UserObject>
        <UserObject label="&lt;div style=&quot;font-size: 1px&quot;&gt;&lt;p style=&quot;text-align:center;margin-left:0;margin-right:0;margin-top:0px;margin-bottom:0px;text-indent:0;vertical-align:middle;direction:ltr;&quot;&gt;&lt;font style=&quot;font-size:11.29px;font-family:Calibri;color:#0d5273;direction:ltr;letter-spacing:0px;line-height:120%;opacity:1&quot;&gt;&amp;lt;&amp;lt;extend&amp;gt;&amp;gt;&lt;br/&gt;&lt;/font&gt;&lt;/p&gt;&lt;/div&gt;" tags="Connector" id="jTA-YyCPrmTPrOojGD1L-157">
          <mxCell style="vsdxID=442;edgeStyle=none;dashed=1;startArrow=none;endArrow=open;startSize=5;endSize=5;strokeColor=#178dc6;spacingTop=0;spacingBottom=0;spacingLeft=0;spacingRight=0;verticalAlign=middle;html=1;labelBackgroundColor=#ffffff;rounded=0;align=center;exitX=0.42;exitY=0.968;exitDx=0;exitDy=0;exitPerimeter=0;" edge="1" parent="1" source="jTA-YyCPrmTPrOojGD1L-139" target="jTA-YyCPrmTPrOojGD1L-148">
            <mxGeometry relative="1" as="geometry">
              <mxPoint x="10" y="43" as="offset" />
              <Array as="points" />
              <mxPoint x="1331" y="1939" as="sourcePoint" />
              <mxPoint x="1749" y="2260" as="targetPoint" />
            </mxGeometry>
          </mxCell>
        </UserObject>
        <UserObject label="&lt;div style=&quot;font-size: 1px&quot;&gt;&lt;p style=&quot;text-align:center;margin-left:0;margin-right:0;margin-top:0px;margin-bottom:0px;text-indent:0;vertical-align:middle;direction:ltr;&quot;&gt;&lt;font style=&quot;font-size:11.29px;font-family:Calibri;color:#0d5273;direction:ltr;letter-spacing:0px;line-height:120%;opacity:1&quot;&gt;&amp;lt;&amp;lt;extend&amp;gt;&amp;gt;&lt;br/&gt;&lt;/font&gt;&lt;/p&gt;&lt;/div&gt;" tags="Connector" id="jTA-YyCPrmTPrOojGD1L-158">
          <mxCell style="vsdxID=442;edgeStyle=none;dashed=1;startArrow=none;endArrow=open;startSize=5;endSize=5;strokeColor=#178dc6;spacingTop=0;spacingBottom=0;spacingLeft=0;spacingRight=0;verticalAlign=middle;html=1;labelBackgroundColor=#ffffff;rounded=0;align=center;" edge="1" parent="1" source="jTA-YyCPrmTPrOojGD1L-148" target="31">
            <mxGeometry relative="1" as="geometry">
              <mxPoint x="10" y="43" as="offset" />
              <Array as="points" />
              <mxPoint x="1341" y="1949" as="sourcePoint" />
              <mxPoint x="1759" y="2270" as="targetPoint" />
            </mxGeometry>
          </mxCell>
        </UserObject>
        <UserObject label="&lt;div style=&quot;font-size: 1px&quot;&gt;&lt;p style=&quot;text-align:center;margin-left:0;margin-right:0;margin-top:0px;margin-bottom:0px;text-indent:0;vertical-align:middle;direction:ltr;&quot;&gt;&lt;font style=&quot;font-size:11.29px;font-family:Calibri;color:#0d5273;direction:ltr;letter-spacing:0px;line-height:120%;opacity:1&quot;&gt;&amp;lt;&amp;lt;extend&amp;gt;&amp;gt;&lt;br/&gt;&lt;/font&gt;&lt;/p&gt;&lt;/div&gt;" tags="Connector" id="jTA-YyCPrmTPrOojGD1L-159">
          <mxCell style="vsdxID=442;edgeStyle=none;dashed=1;startArrow=none;endArrow=open;startSize=5;endSize=5;strokeColor=#178dc6;spacingTop=0;spacingBottom=0;spacingLeft=0;spacingRight=0;verticalAlign=middle;html=1;labelBackgroundColor=#ffffff;rounded=0;align=center;entryX=0.408;entryY=0.048;entryDx=0;entryDy=0;entryPerimeter=0;" edge="1" parent="1" source="jTA-YyCPrmTPrOojGD1L-148" target="32">
            <mxGeometry relative="1" as="geometry">
              <mxPoint x="10" y="43" as="offset" />
              <Array as="points" />
              <mxPoint x="1351" y="1959" as="sourcePoint" />
              <mxPoint x="1769" y="2280" as="targetPoint" />
            </mxGeometry>
          </mxCell>
        </UserObject>
      </root>
    </mxGraphModel>
  </diagram>
</mxfile>
